<svg width="949" height="1204" viewBox="0 0 949 1204" fill="none" xmlns="http://www.w3.org/2000/svg">
<g opacity="0.15">
<circle cx="474.5" cy="474.5" r="474.5" fill="#36536B"/>
<circle cx="474.5" cy="474.5" r="474.5" fill="#36536B"/>
<mask id="mask0_2910_2" style="mask-type:luminance" maskUnits="userSpaceOnUse" x="0" y="0" width="949" height="949">
<circle cx="474.5" cy="474.5" r="474.5" fill="white"/>
</mask>
<g mask="url(#mask0_2910_2)">
</g>
</g>
<g filter="url(#filter0_d_2910_2)">
<path fill-rule="evenodd" clip-rule="evenodd" d="M417.629 799.342H533.241C544.329 799.342 553.318 807.883 553.318 818.419V1079.58C553.318 1090.12 544.329 1098.66 533.241 1098.66H417.629C406.541 1098.66 397.552 1090.12 397.552 1079.58V818.419C397.552 807.883 406.541 799.342 417.629 799.342Z" fill="#213648"/>
</g>
<path opacity="0.595562" fill-rule="evenodd" clip-rule="evenodd" d="M533.688 799H417.113C411.67 799.329 406.651 801.794 402.055 806.394C405.011 803.834 410.283 800.407 417.253 800.407C417.253 800.407 528.901 800.407 533.548 800.407C540.519 800.407 545.791 803.834 548.747 806.394C544.15 801.794 539.131 799.329 533.688 799Z" fill="url(#paint0_linear_2910_2)" fill-opacity="0.65"/>
<path opacity="0.75" fill-rule="evenodd" clip-rule="evenodd" d="M550.163 1076.6V819.989C550.163 813.104 547.613 810.559 546.092 808.924C544.571 807.29 544.507 806.456 546.692 807.69C548.878 808.924 553.249 812.518 553.249 819.989V1076.6C553.249 1084.07 548.878 1087.67 546.692 1088.9C544.507 1090.14 544.571 1089.3 546.092 1087.67C547.613 1086.03 550.163 1083.49 550.163 1076.6Z" fill="url(#paint1_linear_2910_2)"/>
<path opacity="0.75" fill-rule="evenodd" clip-rule="evenodd" d="M400.638 1076.6V819.989C400.638 813.104 403.188 810.559 404.709 808.924C406.23 807.29 406.295 806.456 404.109 807.69C401.924 808.924 397.552 812.518 397.552 819.989V1076.6C397.552 1084.07 401.924 1087.67 404.109 1088.9C406.295 1090.14 406.23 1089.3 404.709 1087.67C403.188 1086.03 400.638 1083.49 400.638 1076.6Z" fill="url(#paint2_linear_2910_2)"/>
<path fill-rule="evenodd" clip-rule="evenodd" d="M396 861.435C396 860.606 396.672 859.934 397.501 859.934C398.329 859.934 399.001 860.606 399.001 861.435V897.044C399.001 897.872 398.329 898.544 397.501 898.544C396.672 898.544 396 897.872 396 897.044V861.435Z" fill="#2E423C"/>
<path fill-rule="evenodd" clip-rule="evenodd" d="M551.696 892.927C551.696 892.098 552.368 891.426 553.197 891.426C554.026 891.426 554.698 892.098 554.698 892.927V918.095C554.698 918.924 554.026 919.596 553.197 919.596C552.368 919.596 551.696 918.924 551.696 918.095V892.927Z" fill="#2E423C"/>
<path fill-rule="evenodd" clip-rule="evenodd" d="M461.702 806.467L416.718 806.467C410.005 806.467 405.113 811.005 405.113 816.932V1070.37C405.113 1078.09 412.672 1084.94 421.218 1084.94H529.636C537.869 1084.94 545.742 1078.04 545.742 1070.37V817.617C545.742 810.513 540.428 806.509 534.137 806.467H488.44C488.267 806.495 485.128 807.776 483.801 811.005C482.475 814.234 479.805 816.808 476.882 816.808H473.488C472.098 816.808 468.441 815.47 466.589 811.005C464.737 806.54 461.875 806.495 461.702 806.467Z" fill="white"/>
<mask id="mask1_2910_2" style="mask-type:luminance" maskUnits="userSpaceOnUse" x="405" y="806" width="141" height="279">
<path fill-rule="evenodd" clip-rule="evenodd" d="M461.702 806.467L416.718 806.467C410.005 806.467 405.113 811.005 405.113 816.932V1070.37C405.113 1078.09 412.672 1084.94 421.218 1084.94H529.636C537.869 1084.94 545.742 1078.04 545.742 1070.37V817.617C545.742 810.513 540.428 806.509 534.137 806.467H488.44C488.267 806.495 485.128 807.776 483.801 811.005C482.475 814.234 479.805 816.808 476.882 816.808H473.488C472.098 816.808 468.441 815.47 466.589 811.005C464.737 806.54 461.875 806.495 461.702 806.467Z" fill="white"/>
</mask>
<g mask="url(#mask1_2910_2)">
<rect x="405" y="806" width="141" height="279" fill="url(#paint3_linear_2910_2)"/>
<path fill-rule="evenodd" clip-rule="evenodd" d="M469.452 880.639V883H459.179V880.907C459.179 880.203 459.311 879.594 459.576 879.079C459.84 878.563 460.19 878.115 460.625 877.735C461.061 877.354 461.538 877.019 462.057 876.731C462.576 876.443 463.097 876.171 463.619 875.915C464.141 875.659 464.62 875.402 465.056 875.143C465.491 874.883 465.841 874.594 466.105 874.274C466.369 873.954 466.502 873.576 466.502 873.141C466.502 872.584 466.307 872.13 465.916 871.778C465.526 871.426 464.993 871.25 464.316 871.25C463.613 871.25 463.016 871.451 462.526 871.855C462.036 872.258 461.733 872.866 461.617 873.679H458.918C458.931 872.795 459.139 871.994 459.542 871.274C459.945 870.554 460.55 869.983 461.356 869.56C462.162 869.138 463.174 868.927 464.393 868.927C465.438 868.927 466.339 869.103 467.097 869.455C467.854 869.807 468.439 870.296 468.852 870.923C469.265 871.551 469.471 872.283 469.471 873.122C469.471 873.819 469.342 874.421 469.084 874.927C468.826 875.432 468.485 875.864 468.059 876.223C467.633 876.581 467.166 876.895 466.656 877.163C466.147 877.432 465.639 877.682 465.133 877.912C464.627 878.143 464.161 878.378 463.735 878.618C463.31 878.858 462.968 879.128 462.71 879.429C462.452 879.73 462.323 880.091 462.323 880.514V880.639H469.452ZM455.997 869.119V883H453.134V872.603H450.638V871.019C451.438 871.019 452.084 870.944 452.577 870.794C453.071 870.643 453.44 870.426 453.685 870.141C453.93 869.856 454.075 869.515 454.12 869.119H455.997ZM474.424 876.319V873.314H471.328V876.319H474.424ZM474.424 879.947V882.943H471.328V879.947H474.424ZM485.567 883V879.928H487.724V877.576H485.567V869.119H482.791L476.416 877.624V879.928H482.859L482.849 883H485.567ZM479.028 877.576H482.859V872.488L479.028 877.576ZM494.263 883.211C495.488 883.211 496.543 882.938 497.426 882.391C498.31 881.843 498.988 881.018 499.462 879.914C499.936 878.81 500.173 877.429 500.173 875.771C500.173 874.383 499.943 873.175 499.482 872.147C499.021 871.12 498.36 870.327 497.499 869.767C496.638 869.207 495.614 868.927 494.428 868.927C493.37 868.927 492.448 869.128 491.661 869.531C490.874 869.935 490.262 870.491 489.823 871.202C489.385 871.912 489.166 872.722 489.166 873.631C489.166 874.533 489.373 875.312 489.789 875.968C490.205 876.624 490.779 877.13 491.511 877.485C492.243 877.84 493.083 878.018 494.031 878.018C494.553 878.018 495.027 877.949 495.453 877.811C495.879 877.674 496.251 877.479 496.57 877.226C496.889 876.973 497.139 876.677 497.32 876.338C497.397 877.445 497.309 878.341 497.054 879.026C496.799 879.711 496.419 880.21 495.912 880.523C495.406 880.837 494.818 880.994 494.147 880.994C493.541 880.994 493.038 880.826 492.638 880.49C492.238 880.154 491.98 879.717 491.864 879.179H489.175C489.233 879.992 489.501 880.701 489.978 881.306C490.455 881.911 491.071 882.379 491.826 882.712C492.58 883.045 493.393 883.211 494.263 883.211ZM492.841 875.191C493.267 875.591 493.825 875.791 494.515 875.791C494.908 875.791 495.29 875.703 495.661 875.527C496.032 875.351 496.336 875.128 496.575 874.859C496.814 874.591 496.933 874.312 496.933 874.024C496.939 873.403 496.841 872.871 496.638 872.426C496.435 871.981 496.151 871.64 495.787 871.403C495.422 871.167 494.998 871.048 494.515 871.048C494.07 871.048 493.673 871.151 493.325 871.355C492.977 871.56 492.703 871.848 492.503 872.219C492.303 872.591 492.203 873.019 492.203 873.506C492.203 874.229 492.416 874.791 492.841 875.191Z" fill="white"/>
</g>
<g clip-path="url(#clip0_2910_2)">
<g filter="url(#filter1_d_2910_2)">
<rect x="408.805" y="899" width="131.255" height="53.1915" rx="5" fill="#FBFCFE"/>
</g>
<path fill-rule="evenodd" clip-rule="evenodd" d="M420.886 914.285V912.426L422.401 909.865H421.44L420.45 911.656L419.447 909.865H418.496L420.007 912.423V914.285H420.886ZM424.171 914.346C424.488 914.346 424.758 914.277 424.982 914.138C425.206 914 425.377 913.809 425.497 913.565C425.616 913.321 425.676 913.041 425.676 912.723C425.676 912.384 425.615 912.091 425.492 911.842C425.37 911.594 425.196 911.402 424.971 911.266C424.747 911.131 424.481 911.063 424.174 911.063C423.867 911.063 423.6 911.132 423.374 911.271C423.149 911.409 422.974 911.603 422.851 911.852C422.727 912.1 422.665 912.391 422.665 912.723C422.665 913.055 422.727 913.342 422.851 913.585C422.974 913.827 423.149 914.015 423.374 914.147C423.6 914.28 423.866 914.346 424.171 914.346ZM423.785 913.539C423.88 913.635 424.009 913.683 424.174 913.683C424.328 913.683 424.453 913.637 424.547 913.545C424.641 913.453 424.71 913.333 424.753 913.183C424.796 913.033 424.818 912.87 424.818 912.692C424.818 912.525 424.798 912.367 424.759 912.218C424.72 912.07 424.653 911.949 424.559 911.858C424.465 911.766 424.336 911.72 424.174 911.72C424.019 911.72 423.894 911.763 423.799 911.85C423.704 911.937 423.634 912.054 423.59 912.202C423.545 912.349 423.523 912.513 423.523 912.692C423.523 912.857 423.543 913.016 423.584 913.168C423.624 913.319 423.691 913.443 423.785 913.539ZM427.407 914.346C427.529 914.346 427.654 914.327 427.782 914.289C427.909 914.252 428.022 914.184 428.122 914.085C428.221 913.986 428.289 913.844 428.325 913.658L428.427 914.285H429.09V911.124H428.22V913.181C428.22 913.344 428.169 913.471 428.068 913.562C427.966 913.653 427.829 913.698 427.657 913.698C427.474 913.698 427.336 913.651 427.241 913.557C427.147 913.464 427.1 913.343 427.1 913.197V911.124H426.221V913.31C426.221 913.479 426.255 913.628 426.325 913.756C426.394 913.884 426.486 913.992 426.6 914.08C426.714 914.168 426.841 914.234 426.981 914.279C427.12 914.324 427.262 914.346 427.407 914.346ZM430.682 912.555V914.285H429.803V911.124H430.649V911.873C430.699 911.712 430.77 911.571 430.861 911.45C430.953 911.328 431.064 911.234 431.194 911.165C431.324 911.097 431.472 911.063 431.637 911.063C431.665 911.063 431.691 911.064 431.716 911.067C431.741 911.07 431.76 911.075 431.772 911.081V911.931C431.754 911.923 431.732 911.918 431.707 911.916C431.682 911.914 431.66 911.912 431.64 911.91C431.467 911.895 431.319 911.9 431.197 911.925C431.075 911.949 430.975 911.991 430.899 912.05C430.823 912.109 430.768 912.182 430.733 912.267C430.699 912.353 430.682 912.449 430.682 912.555ZM434.198 914.285L434.563 913.261H436.128L436.483 914.285H437.359L435.803 909.865H434.876L433.316 914.285H434.198ZM434.758 912.481H435.917L435.342 910.727L434.758 912.481ZM438.78 915.269V913.811C438.824 913.886 438.876 913.956 438.935 914.02C438.995 914.085 439.062 914.141 439.137 914.19C439.212 914.239 439.294 914.277 439.382 914.305C439.471 914.332 439.565 914.346 439.665 914.346C439.91 914.346 440.13 914.287 440.325 914.169C440.519 914.051 440.672 913.869 440.784 913.623C440.895 913.377 440.951 913.063 440.951 912.68C440.951 912.311 440.899 912.007 440.796 911.767C440.692 911.528 440.55 911.351 440.37 911.236C440.189 911.12 439.983 911.063 439.753 911.063C439.646 911.063 439.545 911.076 439.449 911.101C439.352 911.127 439.263 911.163 439.181 911.21C439.098 911.256 439.024 911.311 438.956 911.373C438.889 911.435 438.832 911.504 438.786 911.579L438.783 911.124H437.901V915.269H438.78ZM439.077 913.551C439.176 913.645 439.302 913.692 439.455 913.692C439.645 913.692 439.805 913.611 439.935 913.45C440.064 913.289 440.129 913.035 440.129 912.686C440.129 912.38 440.067 912.141 439.944 911.969C439.82 911.797 439.657 911.711 439.455 911.711C439.228 911.711 439.059 911.804 438.947 911.991C438.836 912.177 438.78 912.409 438.78 912.686C438.78 912.863 438.805 913.028 438.854 913.181C438.903 913.334 438.977 913.457 439.077 913.551ZM442.414 915.269V913.811C442.458 913.886 442.51 913.956 442.569 914.02C442.628 914.085 442.695 914.141 442.771 914.19C442.846 914.239 442.928 914.277 443.016 914.305C443.104 914.332 443.199 914.346 443.299 914.346C443.544 914.346 443.764 914.287 443.958 914.169C444.153 914.051 444.306 913.869 444.417 913.623C444.529 913.377 444.584 913.063 444.584 912.68C444.584 912.311 444.533 912.007 444.429 911.767C444.326 911.528 444.184 911.351 444.003 911.236C443.823 911.12 443.617 911.063 443.386 911.063C443.28 911.063 443.179 911.076 443.082 911.101C442.986 911.127 442.897 911.163 442.814 911.21C442.732 911.256 442.657 911.311 442.59 911.373C442.523 911.435 442.466 911.504 442.42 911.579L442.417 911.124H441.535V915.269H442.414ZM442.71 913.551C442.81 913.645 442.936 913.692 443.088 913.692C443.279 913.692 443.439 913.611 443.568 913.45C443.698 913.289 443.763 913.035 443.763 912.686C443.763 912.38 443.701 912.141 443.577 911.969C443.454 911.797 443.291 911.711 443.088 911.711C442.861 911.711 442.692 911.804 442.581 911.991C442.47 912.177 442.414 912.409 442.414 912.686C442.414 912.863 442.438 913.028 442.488 913.181C442.537 913.334 442.611 913.457 442.71 913.551Z" fill="#BA4270"/>
<path opacity="0.5" fill-rule="evenodd" clip-rule="evenodd" d="M506.691 914.218C506.558 914.303 506.368 914.346 506.124 914.346C505.969 914.346 505.824 914.328 505.689 914.291C505.553 914.254 505.463 914.227 505.419 914.208L505.458 913.667C505.521 913.69 505.592 913.718 505.674 913.751C505.755 913.785 505.856 913.802 505.976 913.802C506.173 913.802 506.308 913.747 506.381 913.637C506.454 913.527 506.491 913.341 506.491 913.08V909.865H507.048V913.242C507.048 913.477 507.022 913.677 506.97 913.842C506.917 914.007 506.825 914.132 506.691 914.218ZM509.524 914.28C509.396 914.326 509.26 914.348 509.113 914.346C508.95 914.344 508.797 914.32 508.654 914.274C508.51 914.228 508.383 914.161 508.273 914.071C508.163 913.981 508.076 913.87 508.013 913.736C507.949 913.603 507.918 913.447 507.918 913.27V911.124H508.475V913.212C508.475 913.418 508.537 913.585 508.663 913.713C508.788 913.842 508.978 913.906 509.23 913.906C509.459 913.906 509.643 913.845 509.783 913.724C509.922 913.603 509.992 913.422 509.992 913.181V911.124H510.546V914.285H510.103L510.046 913.68C510.008 913.839 509.943 913.967 509.852 914.065C509.761 914.163 509.651 914.234 509.524 914.28ZM512.521 914.346C512.774 914.346 512.989 914.308 513.167 914.231C513.344 914.155 513.481 914.047 513.576 913.907C513.671 913.768 513.719 913.601 513.719 913.408C513.719 913.33 513.707 913.249 513.684 913.165C513.661 913.08 513.622 912.999 513.567 912.921C513.512 912.844 513.437 912.774 513.344 912.711C513.251 912.647 513.132 912.596 512.987 912.558L512.364 912.399C512.192 912.356 512.061 912.302 511.973 912.238C511.885 912.174 511.84 912.086 511.84 911.974C511.84 911.805 511.903 911.68 512.027 911.599C512.152 911.519 512.313 911.479 512.512 911.479C512.702 911.479 512.854 911.523 512.968 911.612C513.081 911.7 513.148 911.82 513.168 911.971H513.659C513.651 911.673 513.543 911.448 513.335 911.294C513.127 911.14 512.855 911.063 512.518 911.063C512.255 911.063 512.035 911.104 511.859 911.185C511.682 911.267 511.549 911.378 511.461 911.518C511.373 911.659 511.33 911.822 511.332 912.007C511.332 912.242 511.407 912.424 511.557 912.555C511.708 912.685 511.909 912.781 512.16 912.842L512.804 913.004C512.944 913.037 513.048 913.088 513.115 913.158C513.183 913.229 513.216 913.322 513.216 913.438C513.216 913.603 513.152 913.725 513.024 913.805C512.895 913.884 512.727 913.924 512.518 913.924C512.387 913.924 512.267 913.903 512.157 913.862C512.046 913.82 511.954 913.758 511.881 913.675C511.808 913.592 511.757 913.489 511.729 913.365H511.223C511.255 913.591 511.333 913.777 511.455 913.923C511.578 914.068 511.732 914.175 511.917 914.244C512.103 914.312 512.304 914.346 512.521 914.346ZM515.963 914.285C515.886 914.295 515.79 914.3 515.676 914.3C515.461 914.3 515.294 914.271 515.176 914.212C515.058 914.152 514.975 914.065 514.928 913.949C514.88 913.832 514.857 913.69 514.857 913.521V911.537H514.351V911.124H514.872L515.007 910.204H515.417V911.121H516.118V911.537H515.417V913.502C515.417 913.614 515.428 913.696 515.451 913.748C515.475 913.8 515.514 913.833 515.569 913.848C515.624 913.862 515.7 913.869 515.796 913.869H516.136V914.248C516.098 914.262 516.041 914.275 515.963 914.285ZM518.978 914.285V910.8L521.314 914.285H521.811V909.865H521.254V913.301L518.954 909.865H518.421V914.285H518.978ZM524.862 914.14C524.652 914.277 524.393 914.346 524.084 914.346C523.797 914.346 523.546 914.283 523.331 914.158C523.117 914.033 522.95 913.849 522.832 913.606C522.713 913.364 522.654 913.067 522.654 912.717C522.654 912.387 522.709 912.097 522.82 911.848C522.93 911.6 523.092 911.407 523.306 911.269C523.519 911.132 523.779 911.063 524.084 911.063C524.371 911.063 524.62 911.127 524.832 911.254C525.044 911.381 525.208 911.568 525.324 911.815C525.441 912.061 525.499 912.362 525.499 912.717C525.499 913.039 525.445 913.322 525.338 913.567C525.23 913.811 525.072 914.002 524.862 914.14ZM524.084 913.9C523.877 913.9 523.71 913.847 523.581 913.741C523.453 913.635 523.358 913.491 523.298 913.31C523.238 913.128 523.208 912.927 523.208 912.704C523.208 912.454 523.241 912.239 523.309 912.059C523.376 911.88 523.475 911.743 523.605 911.648C523.736 911.553 523.895 911.506 524.084 911.506C524.289 911.506 524.455 911.559 524.582 911.665C524.71 911.771 524.802 911.914 524.861 912.095C524.919 912.275 524.948 912.478 524.948 912.704C524.948 912.951 524.915 913.164 524.849 913.343C524.782 913.523 524.685 913.66 524.557 913.756C524.428 913.852 524.271 913.9 524.084 913.9ZM528.124 911.952L527.45 914.285H526.905L525.944 911.124H526.459L527.173 913.554H527.221L527.922 911.124H528.344L529.072 913.548H529.12L529.804 911.124H530.325L529.382 914.285H528.834L528.124 911.952Z" fill="#36536B"/>
<path d="M418.15 921.353V920.8H421.705V921.353H420.272V925.5H419.667V921.353H418.15ZM422.357 925.5V920.67H422.942V922.633C422.998 922.54 423.074 922.454 423.169 922.373C423.264 922.291 423.38 922.225 423.517 922.175C423.653 922.123 423.812 922.097 423.991 922.097C424.21 922.097 424.408 922.138 424.586 922.221C424.764 922.301 424.905 922.416 425.009 922.565C425.113 922.715 425.165 922.892 425.165 923.098V925.5H424.563V923.218C424.563 923.017 424.494 922.862 424.355 922.754C424.219 922.643 424.04 922.588 423.819 922.588C423.67 922.588 423.529 922.613 423.397 922.663C423.264 922.71 423.157 922.784 423.075 922.884C422.995 922.981 422.955 923.106 422.955 923.257V925.5H422.357ZM426.531 923.959C426.531 924.172 426.565 924.365 426.635 924.538C426.706 924.709 426.813 924.846 426.956 924.947C427.102 925.049 427.283 925.1 427.499 925.1C427.714 925.1 427.898 925.05 428.052 924.951C428.208 924.851 428.307 924.707 428.351 924.518H428.919C428.878 924.746 428.787 924.938 428.646 925.094C428.506 925.25 428.336 925.368 428.136 925.448C427.937 925.526 427.729 925.565 427.512 925.565C427.198 925.565 426.922 925.497 426.683 925.36C426.445 925.224 426.259 925.028 426.124 924.772C425.99 924.516 425.923 924.21 425.923 923.852C425.923 923.499 425.984 923.189 426.105 922.923C426.226 922.656 426.402 922.448 426.631 922.299C426.863 922.149 427.142 922.074 427.467 922.074C427.783 922.074 428.051 922.143 428.269 922.279C428.488 922.416 428.654 922.609 428.767 922.858C428.882 923.105 428.939 923.398 428.939 923.738V923.959H426.531ZM426.534 923.553H428.36C428.36 923.36 428.328 923.187 428.263 923.033C428.198 922.877 428.098 922.755 427.964 922.666C427.832 922.575 427.665 922.529 427.463 922.529C427.253 922.529 427.079 922.58 426.94 922.682C426.804 922.782 426.701 922.911 426.631 923.069C426.564 923.225 426.532 923.386 426.534 923.553ZM431.218 926.547V922.139H431.816L431.822 922.724C431.861 922.655 431.911 922.583 431.972 922.507C432.035 922.431 432.111 922.36 432.199 922.295C432.29 922.23 432.396 922.177 432.515 922.136C432.636 922.095 432.774 922.074 432.927 922.074C433.196 922.074 433.432 922.136 433.636 922.26C433.842 922.381 434.002 922.567 434.117 922.819C434.232 923.07 434.289 923.389 434.289 923.774C434.289 924.16 434.233 924.486 434.12 924.752C434.01 925.017 433.849 925.218 433.639 925.357C433.429 925.496 433.176 925.565 432.879 925.565C432.729 925.565 432.596 925.543 432.479 925.5C432.364 925.459 432.263 925.405 432.177 925.337C432.092 925.268 432.021 925.194 431.962 925.116C431.906 925.038 431.859 924.964 431.822 924.892V926.547H431.218ZM432.765 925.097C433.042 925.097 433.269 924.992 433.444 924.782C433.62 924.569 433.707 924.24 433.707 923.794C433.707 923.41 433.627 923.106 433.467 922.88C433.307 922.655 433.073 922.542 432.765 922.542C432.453 922.542 432.217 922.658 432.056 922.89C431.896 923.12 431.816 923.421 431.816 923.794C431.816 924.034 431.852 924.253 431.923 924.45C431.995 924.647 432.101 924.804 432.242 924.921C432.383 925.038 432.557 925.097 432.765 925.097ZM435.962 925.565C435.746 925.565 435.554 925.527 435.387 925.451C435.22 925.373 435.089 925.262 434.994 925.116C434.901 924.971 434.854 924.796 434.854 924.59C434.854 924.217 434.984 923.94 435.244 923.758C435.504 923.576 435.921 923.478 436.495 923.465L437.097 923.449V923.186C437.097 922.98 437.035 922.818 436.911 922.698C436.788 922.577 436.596 922.516 436.336 922.516C436.143 922.519 435.973 922.564 435.826 922.653C435.681 922.742 435.586 922.887 435.543 923.088H435.013C435.026 922.87 435.088 922.685 435.199 922.536C435.309 922.384 435.463 922.269 435.66 922.191C435.859 922.113 436.095 922.074 436.365 922.074C436.658 922.074 436.901 922.116 437.093 922.198C437.288 922.28 437.434 922.402 437.529 922.562C437.626 922.722 437.675 922.919 437.675 923.153V925.5H437.162L437.119 924.869C436.989 925.132 436.824 925.314 436.622 925.415C436.423 925.515 436.203 925.565 435.962 925.565ZM436.144 925.133C436.257 925.133 436.369 925.112 436.479 925.071C436.592 925.03 436.695 924.975 436.788 924.905C436.881 924.834 436.955 924.755 437.009 924.668C437.065 924.579 437.094 924.488 437.097 924.395V923.82L436.596 923.83C436.34 923.834 436.126 923.86 435.953 923.907C435.781 923.955 435.653 924.03 435.566 924.132C435.481 924.234 435.439 924.367 435.439 924.531C435.439 924.72 435.504 924.867 435.634 924.973C435.766 925.08 435.936 925.133 436.144 925.133ZM438.925 926.573C438.728 926.573 438.593 926.558 438.519 926.53C438.446 926.502 438.409 926.488 438.409 926.488V926.098L438.75 926.105C438.876 926.109 438.98 926.1 439.062 926.079C439.144 926.057 439.21 926.028 439.26 925.991C439.31 925.954 439.348 925.913 439.374 925.867C439.402 925.822 439.425 925.778 439.442 925.737L439.559 925.419L438.246 922.139H438.854L439.845 924.733L440.83 922.139H441.418L440.001 925.754C439.915 925.966 439.817 926.132 439.709 926.251C439.603 926.37 439.483 926.453 439.351 926.501C439.221 926.549 439.079 926.573 438.925 926.573ZM442.06 925.5V922.139H442.638V922.627C442.731 922.48 442.859 922.351 443.022 922.24C443.184 922.13 443.396 922.074 443.656 922.074C443.777 922.074 443.9 922.095 444.026 922.136C444.154 922.177 444.271 922.239 444.377 922.321C444.483 922.404 444.566 922.505 444.624 922.624C444.728 922.459 444.869 922.327 445.047 922.227C445.224 922.125 445.425 922.074 445.648 922.074C445.765 922.074 445.887 922.093 446.015 922.13C446.143 922.164 446.261 922.227 446.369 922.318C446.48 922.407 446.57 922.532 446.639 922.692C446.708 922.85 446.743 923.054 446.743 923.303V925.5H446.139V923.361C446.139 923.158 446.106 923.001 446.041 922.89C445.976 922.778 445.89 922.698 445.784 922.653C445.68 922.607 445.569 922.585 445.45 922.585C445.346 922.585 445.235 922.605 445.118 922.646C445.001 922.688 444.901 922.757 444.819 922.854C444.737 922.952 444.696 923.085 444.696 923.254V925.5H444.098V923.186C444.098 923.054 444.062 922.943 443.99 922.854C443.921 922.766 443.833 922.698 443.727 922.653C443.623 922.607 443.519 922.585 443.415 922.585C443.3 922.585 443.184 922.607 443.067 922.653C442.952 922.698 442.855 922.771 442.775 922.871C442.697 922.968 442.658 923.096 442.658 923.254V925.5H442.06ZM448.113 923.959C448.113 924.172 448.147 924.365 448.217 924.538C448.288 924.709 448.396 924.846 448.539 924.947C448.684 925.049 448.865 925.1 449.081 925.1C449.296 925.1 449.48 925.05 449.634 924.951C449.79 924.851 449.889 924.707 449.933 924.518H450.502C450.46 924.746 450.369 924.938 450.229 925.094C450.088 925.25 449.918 925.368 449.718 925.448C449.519 925.526 449.311 925.565 449.094 925.565C448.78 925.565 448.504 925.497 448.266 925.36C448.027 925.224 447.841 925.028 447.707 924.772C447.572 924.516 447.505 924.21 447.505 923.852C447.505 923.499 447.566 923.189 447.687 922.923C447.808 922.656 447.984 922.448 448.214 922.299C448.445 922.149 448.724 922.074 449.049 922.074C449.365 922.074 449.633 922.143 449.852 922.279C450.07 922.416 450.236 922.609 450.349 922.858C450.464 923.105 450.521 923.398 450.521 923.738V923.959H448.113ZM448.116 923.553H449.943C449.943 923.36 449.91 923.187 449.845 923.033C449.78 922.877 449.68 922.755 449.546 922.666C449.414 922.575 449.247 922.529 449.046 922.529C448.835 922.529 448.661 922.58 448.522 922.682C448.386 922.782 448.283 922.911 448.214 923.069C448.146 923.225 448.114 923.386 448.116 923.553ZM451.346 925.5V922.139H451.928V922.627C451.982 922.534 452.057 922.446 452.152 922.364C452.25 922.281 452.367 922.215 452.503 922.165C452.642 922.116 452.801 922.091 452.981 922.091C453.193 922.091 453.388 922.133 453.566 922.218C453.746 922.302 453.889 922.434 453.995 922.614C454.103 922.792 454.158 923.021 454.158 923.303V925.5H453.556V923.361C453.556 923.099 453.487 922.905 453.348 922.78C453.212 922.652 453.034 922.588 452.815 922.588C452.664 922.588 452.522 922.613 452.39 922.663C452.257 922.71 452.15 922.784 452.068 922.884C451.986 922.981 451.944 923.105 451.944 923.254V925.5H451.346ZM456.646 922.578H455.889V924.668C455.889 924.787 455.901 924.875 455.925 924.931C455.951 924.985 455.993 925.02 456.052 925.035C456.112 925.05 456.195 925.058 456.299 925.058H456.666V925.461C456.625 925.476 456.562 925.489 456.477 925.5C456.395 925.511 456.292 925.516 456.169 925.516C455.937 925.516 455.757 925.485 455.629 925.422C455.501 925.359 455.411 925.266 455.359 925.142C455.31 925.019 455.285 924.867 455.285 924.688V922.578H454.739V922.139H455.301L455.447 921.161H455.889V922.136H456.646V922.578ZM459.008 925.5V920.67H459.593V922.633C459.649 922.54 459.725 922.454 459.82 922.373C459.916 922.291 460.032 922.225 460.168 922.175C460.305 922.123 460.463 922.097 460.643 922.097C460.862 922.097 461.06 922.138 461.237 922.221C461.415 922.301 461.556 922.416 461.66 922.565C461.764 922.715 461.816 922.892 461.816 923.098V925.5H461.215V923.218C461.215 923.017 461.145 922.862 461.007 922.754C460.87 922.643 460.691 922.588 460.47 922.588C460.321 922.588 460.18 922.613 460.048 922.663C459.916 922.71 459.809 922.784 459.726 922.884C459.646 922.981 459.606 923.106 459.606 923.257V925.5H459.008ZM463.67 925.565C463.453 925.565 463.261 925.527 463.095 925.451C462.928 925.373 462.797 925.262 462.701 925.116C462.608 924.971 462.562 924.796 462.562 924.59C462.562 924.217 462.692 923.94 462.952 923.758C463.212 923.576 463.629 923.478 464.203 923.465L464.804 923.449V923.186C464.804 922.98 464.742 922.818 464.619 922.698C464.495 922.577 464.304 922.516 464.044 922.516C463.851 922.519 463.681 922.564 463.533 922.653C463.388 922.742 463.294 922.887 463.251 923.088H462.721C462.734 922.87 462.796 922.685 462.906 922.536C463.017 922.384 463.17 922.269 463.368 922.191C463.567 922.113 463.802 922.074 464.073 922.074C464.365 922.074 464.608 922.116 464.801 922.198C464.996 922.28 465.141 922.402 465.236 922.562C465.334 922.722 465.383 922.919 465.383 923.153V925.5H464.869L464.827 924.869C464.697 925.132 464.531 925.314 464.33 925.415C464.13 925.515 463.91 925.565 463.67 925.565ZM463.852 925.133C463.965 925.133 464.076 925.112 464.187 925.071C464.299 925.03 464.402 924.975 464.495 924.905C464.589 924.834 464.662 924.755 464.716 924.668C464.773 924.579 464.802 924.488 464.804 924.395V923.82L464.304 923.83C464.048 923.834 463.833 923.86 463.66 923.907C463.489 923.955 463.36 924.03 463.273 924.132C463.189 924.234 463.147 924.367 463.147 924.531C463.147 924.72 463.212 924.867 463.342 924.973C463.474 925.08 463.644 925.133 463.852 925.133ZM467.545 925.565C467.311 925.565 467.093 925.529 466.892 925.458C466.692 925.384 466.527 925.27 466.394 925.116C466.262 924.96 466.179 924.762 466.144 924.522H466.69C466.721 924.654 466.775 924.764 466.853 924.853C466.933 924.94 467.033 925.006 467.152 925.051C467.271 925.095 467.401 925.116 467.542 925.116C467.767 925.116 467.949 925.074 468.088 924.99C468.226 924.905 468.296 924.775 468.296 924.6C468.296 924.476 468.259 924.378 468.185 924.304C468.114 924.228 468.002 924.173 467.85 924.138L467.155 923.966C466.884 923.901 466.667 923.799 466.505 923.66C466.342 923.522 466.261 923.328 466.261 923.079C466.259 922.882 466.306 922.708 466.401 922.559C466.496 922.409 466.639 922.291 466.83 922.204C467.021 922.118 467.258 922.074 467.542 922.074C467.906 922.074 468.199 922.157 468.422 922.321C468.648 922.484 468.765 922.723 468.773 923.04H468.244C468.222 922.879 468.149 922.753 468.026 922.659C467.905 922.564 467.741 922.516 467.535 922.516C467.321 922.516 467.146 922.56 467.012 922.646C466.878 922.731 466.81 922.863 466.81 923.043C466.81 923.162 466.858 923.256 466.953 923.326C467.049 923.393 467.19 923.449 467.376 923.495L468.049 923.664C468.205 923.705 468.333 923.759 468.432 923.826C468.534 923.893 468.614 923.968 468.673 924.05C468.733 924.133 468.776 924.219 468.799 924.31C468.825 924.399 468.838 924.485 468.838 924.567C468.838 924.773 468.786 924.951 468.682 925.1C468.581 925.248 468.433 925.362 468.24 925.445C468.05 925.525 467.818 925.565 467.545 925.565ZM472.812 925.565C472.615 925.565 472.448 925.539 472.311 925.487C472.177 925.435 472.066 925.369 471.98 925.289C471.893 925.206 471.826 925.123 471.778 925.038C471.731 924.952 471.696 924.876 471.674 924.811L471.609 925.5H471.151V920.67H471.756V922.672C471.784 922.616 471.826 922.554 471.882 922.487C471.941 922.42 472.016 922.355 472.107 922.292C472.198 922.229 472.305 922.177 472.428 922.136C472.554 922.095 472.697 922.074 472.857 922.074C473.278 922.074 473.611 922.221 473.858 922.513C474.107 922.806 474.232 923.237 474.232 923.807C474.232 924.16 474.179 924.469 474.073 924.733C473.967 924.995 473.808 925.2 473.598 925.347C473.388 925.492 473.126 925.565 472.812 925.565ZM472.705 925.103C472.978 925.103 473.2 924.998 473.371 924.788C473.542 924.576 473.628 924.239 473.628 923.777C473.628 923.385 473.547 923.082 473.387 922.867C473.229 922.651 472.997 922.542 472.692 922.542C472.468 922.542 472.289 922.591 472.152 922.689C472.018 922.784 471.918 922.924 471.853 923.108C471.79 923.292 471.758 923.515 471.756 923.777C471.756 924.248 471.828 924.587 471.973 924.795C472.121 925.001 472.364 925.103 472.705 925.103ZM475.446 923.959C475.446 924.172 475.48 924.365 475.55 924.538C475.621 924.709 475.729 924.846 475.872 924.947C476.017 925.049 476.198 925.1 476.414 925.1C476.629 925.1 476.813 925.05 476.967 924.951C477.123 924.851 477.222 924.707 477.266 924.518H477.835C477.793 924.746 477.702 924.938 477.562 925.094C477.421 925.25 477.251 925.368 477.051 925.448C476.852 925.526 476.644 925.565 476.427 925.565C476.113 925.565 475.837 925.497 475.599 925.36C475.36 925.224 475.174 925.028 475.04 924.772C474.905 924.516 474.838 924.21 474.838 923.852C474.838 923.499 474.899 923.189 475.02 922.923C475.141 922.656 475.317 922.448 475.547 922.299C475.778 922.149 476.057 922.074 476.382 922.074C476.698 922.074 476.966 922.143 477.185 922.279C477.403 922.416 477.569 922.609 477.682 922.858C477.797 923.105 477.854 923.398 477.854 923.738V923.959H475.446ZM475.449 923.553H477.276C477.276 923.36 477.243 923.187 477.178 923.033C477.113 922.877 477.013 922.755 476.879 922.666C476.747 922.575 476.58 922.529 476.379 922.529C476.168 922.529 475.994 922.58 475.855 922.682C475.719 922.782 475.616 922.911 475.547 923.069C475.479 923.225 475.447 923.386 475.449 923.553ZM479.108 923.959C479.108 924.172 479.143 924.365 479.212 924.538C479.284 924.709 479.391 924.846 479.534 924.947C479.679 925.049 479.86 925.1 480.077 925.1C480.291 925.1 480.476 925.05 480.629 924.951C480.785 924.851 480.885 924.707 480.928 924.518H481.497C481.456 924.746 481.365 924.938 481.224 925.094C481.083 925.25 480.913 925.368 480.714 925.448C480.515 925.526 480.307 925.565 480.09 925.565C479.776 925.565 479.499 925.497 479.261 925.36C479.023 925.224 478.836 925.028 478.702 924.772C478.568 924.516 478.501 924.21 478.501 923.852C478.501 923.499 478.561 923.189 478.683 922.923C478.804 922.656 478.979 922.448 479.209 922.299C479.441 922.149 479.719 922.074 480.044 922.074C480.361 922.074 480.628 922.143 480.847 922.279C481.066 922.416 481.232 922.609 481.344 922.858C481.459 923.105 481.517 923.398 481.517 923.738V923.959H479.108ZM479.112 923.553H480.938C480.938 923.36 480.906 923.187 480.841 923.033C480.776 922.877 480.676 922.755 480.542 922.666C480.409 922.575 480.243 922.529 480.041 922.529C479.831 922.529 479.657 922.58 479.518 922.682C479.381 922.782 479.278 922.911 479.209 923.069C479.142 923.225 479.109 923.386 479.112 923.553ZM482.342 925.5V922.139H482.924V922.627C482.978 922.534 483.053 922.446 483.148 922.364C483.245 922.281 483.362 922.215 483.499 922.165C483.638 922.116 483.797 922.091 483.977 922.091C484.189 922.091 484.384 922.133 484.562 922.218C484.742 922.302 484.885 922.434 484.991 922.614C485.099 922.792 485.153 923.021 485.153 923.303V925.5H484.552V923.361C484.552 923.099 484.483 922.905 484.344 922.78C484.207 922.652 484.03 922.588 483.811 922.588C483.659 922.588 483.517 922.613 483.385 922.663C483.253 922.71 483.146 922.784 483.063 922.884C482.981 922.981 482.94 923.105 482.94 923.254V925.5H482.342ZM487.591 926.547V922.139H488.189L488.196 922.724C488.235 922.655 488.285 922.583 488.345 922.507C488.408 922.431 488.484 922.36 488.573 922.295C488.664 922.23 488.769 922.177 488.888 922.136C489.01 922.095 489.147 922.074 489.301 922.074C489.57 922.074 489.806 922.136 490.009 922.26C490.215 922.381 490.376 922.567 490.49 922.819C490.605 923.07 490.663 923.389 490.663 923.774C490.663 924.16 490.606 924.486 490.494 924.752C490.383 925.017 490.223 925.218 490.013 925.357C489.803 925.496 489.549 925.565 489.252 925.565C489.103 925.565 488.969 925.543 488.852 925.5C488.738 925.459 488.637 925.405 488.55 925.337C488.466 925.268 488.394 925.194 488.336 925.116C488.279 925.038 488.233 924.964 488.196 924.892V926.547H487.591ZM489.138 925.097C489.416 925.097 489.642 924.992 489.818 924.782C489.993 924.569 490.081 924.24 490.081 923.794C490.081 923.41 490.001 923.106 489.84 922.88C489.68 922.655 489.446 922.542 489.138 922.542C488.826 922.542 488.59 922.658 488.43 922.89C488.27 923.12 488.189 923.421 488.189 923.794C488.189 924.034 488.225 924.253 488.297 924.45C488.368 924.647 488.474 924.804 488.615 924.921C488.756 925.038 488.93 925.097 489.138 925.097ZM491.451 925.5V922.139H492.023V922.786C492.079 922.626 492.158 922.494 492.26 922.39C492.362 922.284 492.478 922.204 492.608 922.152C492.74 922.1 492.877 922.074 493.017 922.074C493.067 922.074 493.116 922.078 493.164 922.084C493.211 922.091 493.248 922.102 493.274 922.117V922.698C493.242 922.683 493.199 922.674 493.147 922.669C493.098 922.663 493.055 922.659 493.021 922.659C492.886 922.651 492.761 922.659 492.644 922.685C492.527 922.709 492.424 922.752 492.335 922.812C492.246 922.873 492.176 922.953 492.124 923.053C492.074 923.15 492.049 923.269 492.049 923.41V925.5H491.451ZM495.23 925.565C494.921 925.565 494.65 925.499 494.418 925.367C494.186 925.232 494.006 925.036 493.878 924.778C493.751 924.521 493.687 924.205 493.687 923.833C493.687 923.482 493.746 923.174 493.865 922.91C493.985 922.645 494.159 922.441 494.389 922.295C494.621 922.148 494.901 922.074 495.23 922.074C495.54 922.074 495.809 922.143 496.036 922.279C496.266 922.414 496.444 922.612 496.569 922.874C496.695 923.136 496.758 923.456 496.758 923.833C496.758 924.175 496.699 924.476 496.582 924.736C496.468 924.996 496.296 925.2 496.069 925.347C495.844 925.492 495.564 925.565 495.23 925.565ZM495.23 925.09C495.432 925.09 495.602 925.04 495.741 924.938C495.879 924.836 495.984 924.69 496.056 924.499C496.127 924.308 496.163 924.082 496.163 923.82C496.163 923.579 496.132 923.364 496.069 923.173C496.006 922.98 495.905 922.827 495.767 922.715C495.63 922.602 495.451 922.546 495.23 922.546C495.027 922.546 494.855 922.597 494.714 922.698C494.573 922.798 494.466 922.943 494.392 923.134C494.32 923.325 494.285 923.553 494.285 923.82C494.285 924.056 494.317 924.27 494.382 924.463C494.447 924.656 494.549 924.809 494.688 924.921C494.826 925.034 495.007 925.09 495.23 925.09ZM498.884 922.074C499.124 922.074 499.341 922.121 499.534 922.214C499.726 922.305 499.884 922.435 500.005 922.604C500.128 922.773 500.205 922.973 500.236 923.202H499.703C499.683 923.085 499.638 922.978 499.566 922.88C499.497 922.783 499.405 922.705 499.29 922.646C499.175 922.588 499.041 922.559 498.887 922.559C498.599 922.559 498.365 922.663 498.185 922.871C498.005 923.079 497.915 923.397 497.915 923.826C497.915 924.214 497.997 924.525 498.162 924.759C498.329 924.991 498.574 925.107 498.897 925.107C499.05 925.107 499.184 925.077 499.296 925.019C499.411 924.958 499.503 924.879 499.573 924.782C499.642 924.682 499.686 924.576 499.706 924.463H500.229C500.201 924.689 500.125 924.884 500.002 925.048C499.878 925.213 499.72 925.341 499.527 925.432C499.336 925.521 499.122 925.565 498.884 925.565C498.582 925.565 498.315 925.499 498.081 925.367C497.849 925.235 497.667 925.04 497.535 924.782C497.403 924.524 497.337 924.208 497.337 923.833C497.337 923.482 497.396 923.175 497.515 922.913C497.637 922.649 497.812 922.443 498.042 922.295C498.274 922.148 498.554 922.074 498.884 922.074ZM501.478 923.959C501.478 924.172 501.512 924.365 501.582 924.538C501.653 924.709 501.76 924.846 501.903 924.947C502.048 925.049 502.229 925.1 502.446 925.1C502.661 925.1 502.845 925.05 502.999 924.951C503.155 924.851 503.254 924.707 503.298 924.518H503.866C503.825 924.746 503.734 924.938 503.593 925.094C503.452 925.25 503.282 925.368 503.083 925.448C502.884 925.526 502.676 925.565 502.459 925.565C502.145 925.565 501.869 925.497 501.63 925.36C501.392 925.224 501.206 925.028 501.071 924.772C500.937 924.516 500.87 924.21 500.87 923.852C500.87 923.499 500.93 923.189 501.052 922.923C501.173 922.656 501.349 922.448 501.578 922.299C501.81 922.149 502.089 922.074 502.414 922.074C502.73 922.074 502.997 922.143 503.216 922.279C503.435 922.416 503.601 922.609 503.714 922.858C503.828 923.105 503.886 923.398 503.886 923.738V923.959H501.478ZM501.481 923.553H503.307C503.307 923.36 503.275 923.187 503.21 923.033C503.145 922.877 503.045 922.755 502.911 922.666C502.779 922.575 502.612 922.529 502.41 922.529C502.2 922.529 502.026 922.58 501.887 922.682C501.751 922.782 501.648 922.911 501.578 923.069C501.511 923.225 501.479 923.386 501.481 923.553ZM505.878 925.565C505.644 925.565 505.427 925.529 505.225 925.458C505.026 925.384 504.86 925.27 504.728 925.116C504.596 924.96 504.512 924.762 504.478 924.522H505.024C505.054 924.654 505.108 924.764 505.186 924.853C505.266 924.94 505.366 925.006 505.485 925.051C505.604 925.095 505.734 925.116 505.875 925.116C506.101 925.116 506.283 925.074 506.421 924.99C506.56 924.905 506.629 924.775 506.629 924.6C506.629 924.476 506.592 924.378 506.519 924.304C506.447 924.228 506.336 924.173 506.184 924.138L505.488 923.966C505.218 923.901 505.001 923.799 504.838 923.66C504.676 923.522 504.595 923.328 504.595 923.079C504.593 922.882 504.639 922.708 504.734 922.559C504.83 922.409 504.973 922.291 505.163 922.204C505.354 922.118 505.591 922.074 505.875 922.074C506.239 922.074 506.533 922.157 506.756 922.321C506.981 922.484 507.098 922.723 507.107 923.04H506.577C506.556 922.879 506.483 922.753 506.359 922.659C506.238 922.564 506.075 922.516 505.869 922.516C505.654 922.516 505.48 922.56 505.345 922.646C505.211 922.731 505.144 922.863 505.144 923.043C505.144 923.162 505.192 923.256 505.287 923.326C505.382 923.393 505.523 923.449 505.709 923.495L506.382 923.664C506.538 923.705 506.666 923.759 506.766 923.826C506.868 923.893 506.948 923.968 507.006 924.05C507.067 924.133 507.109 924.219 507.133 924.31C507.159 924.399 507.172 924.485 507.172 924.567C507.172 924.773 507.12 924.951 507.016 925.1C506.914 925.248 506.767 925.362 506.574 925.445C506.383 925.525 506.151 925.565 505.878 925.565ZM509.148 925.565C508.914 925.565 508.696 925.529 508.494 925.458C508.295 925.384 508.129 925.27 507.997 925.116C507.865 924.96 507.781 924.762 507.747 924.522H508.293C508.323 924.654 508.377 924.764 508.455 924.853C508.535 924.94 508.635 925.006 508.754 925.051C508.873 925.095 509.003 925.116 509.144 925.116C509.37 925.116 509.552 925.074 509.69 924.99C509.829 924.905 509.898 924.775 509.898 924.6C509.898 924.476 509.861 924.378 509.788 924.304C509.716 924.228 509.605 924.173 509.453 924.138L508.758 923.966C508.487 923.901 508.27 923.799 508.108 923.66C507.945 923.522 507.864 923.328 507.864 923.079C507.862 922.882 507.908 922.708 508.004 922.559C508.099 922.409 508.242 922.291 508.433 922.204C508.623 922.118 508.86 922.074 509.144 922.074C509.508 922.074 509.802 922.157 510.025 922.321C510.25 922.484 510.367 922.723 510.376 923.04H509.846C509.825 922.879 509.752 922.753 509.629 922.659C509.507 922.564 509.344 922.516 509.138 922.516C508.923 922.516 508.749 922.56 508.615 922.646C508.48 922.731 508.413 922.863 508.413 923.043C508.413 923.162 508.461 923.256 508.556 923.326C508.651 923.393 508.792 923.449 508.979 923.495L509.651 923.664C509.807 923.705 509.935 923.759 510.035 923.826C510.137 923.893 510.217 923.968 510.275 924.05C510.336 924.133 510.378 924.219 510.402 924.31C510.428 924.399 510.441 924.485 510.441 924.567C510.441 924.773 510.389 924.951 510.285 925.1C510.183 925.248 510.036 925.362 509.843 925.445C509.652 925.525 509.421 925.565 509.148 925.565ZM511.71 923.959C511.71 924.172 511.745 924.365 511.814 924.538C511.885 924.709 511.993 924.846 512.136 924.947C512.281 925.049 512.462 925.1 512.678 925.1C512.893 925.1 513.077 925.05 513.231 924.951C513.387 924.851 513.487 924.707 513.53 924.518H514.099C514.058 924.746 513.967 924.938 513.826 925.094C513.685 925.25 513.515 925.368 513.315 925.448C513.116 925.526 512.908 925.565 512.691 925.565C512.377 925.565 512.101 925.497 511.863 925.36C511.624 925.224 511.438 925.028 511.304 924.772C511.169 924.516 511.102 924.21 511.102 923.852C511.102 923.499 511.163 923.189 511.284 922.923C511.406 922.656 511.581 922.448 511.811 922.299C512.043 922.149 512.321 922.074 512.646 922.074C512.962 922.074 513.23 922.143 513.449 922.279C513.668 922.416 513.833 922.609 513.946 922.858C514.061 923.105 514.118 923.398 514.118 923.738V923.959H511.71ZM511.713 923.553H513.54C513.54 923.36 513.507 923.187 513.442 923.033C513.377 922.877 513.278 922.755 513.143 922.666C513.011 922.575 512.844 922.529 512.643 922.529C512.433 922.529 512.258 922.58 512.119 922.682C511.983 922.782 511.88 922.911 511.811 923.069C511.744 923.225 511.711 923.386 511.713 923.553ZM516.156 925.565C515.72 925.565 515.375 925.415 515.119 925.116C514.863 924.817 514.736 924.381 514.736 923.807C514.736 923.458 514.786 923.153 514.888 922.893C514.992 922.633 515.146 922.432 515.35 922.289C515.553 922.146 515.807 922.074 516.11 922.074C516.271 922.074 516.413 922.095 516.536 922.136C516.662 922.177 516.77 922.229 516.861 922.292C516.952 922.355 517.026 922.42 517.082 922.487C517.141 922.554 517.184 922.616 517.212 922.672V920.67H517.817V925.5H517.358L517.293 924.811C517.272 924.876 517.237 924.952 517.189 925.038C517.142 925.123 517.074 925.206 516.988 925.289C516.901 925.369 516.79 925.435 516.653 925.487C516.519 925.539 516.353 925.565 516.156 925.565ZM516.263 925.103C516.603 925.103 516.846 925.001 516.991 924.795C517.138 924.587 517.212 924.248 517.212 923.777C517.21 923.515 517.176 923.292 517.111 923.108C517.048 922.924 516.949 922.784 516.812 922.689C516.678 922.591 516.499 922.542 516.276 922.542C515.999 922.542 515.773 922.641 515.6 922.838C515.427 923.035 515.34 923.348 515.34 923.777C515.34 924.198 515.418 924.524 515.574 924.756C515.732 924.988 515.962 925.103 516.263 925.103ZM518.67 925.5V924.733H519.385V925.5H518.67ZM418.15 929.353V928.8H421.705V929.353H420.272V933.5H419.667V929.353H418.15ZM422.357 933.5V928.67H422.942V930.633C422.998 930.54 423.074 930.454 423.169 930.373C423.264 930.291 423.38 930.225 423.517 930.175C423.653 930.123 423.812 930.097 423.991 930.097C424.21 930.097 424.408 930.138 424.586 930.221C424.764 930.301 424.905 930.416 425.009 930.565C425.113 930.715 425.165 930.892 425.165 931.098V933.5H424.563V931.218C424.563 931.017 424.494 930.862 424.355 930.754C424.219 930.643 424.04 930.588 423.819 930.588C423.67 930.588 423.529 930.613 423.397 930.663C423.264 930.71 423.157 930.784 423.075 930.884C422.995 930.981 422.955 931.106 422.955 931.257V933.5H422.357ZM426.531 931.959C426.531 932.172 426.565 932.365 426.635 932.538C426.706 932.709 426.813 932.846 426.956 932.947C427.102 933.049 427.283 933.1 427.499 933.1C427.714 933.1 427.898 933.05 428.052 932.951C428.208 932.851 428.307 932.707 428.351 932.518H428.919C428.878 932.746 428.787 932.938 428.646 933.094C428.506 933.25 428.336 933.368 428.136 933.448C427.937 933.526 427.729 933.565 427.512 933.565C427.198 933.565 426.922 933.497 426.683 933.36C426.445 933.224 426.259 933.028 426.124 932.772C425.99 932.516 425.923 932.21 425.923 931.852C425.923 931.499 425.984 931.189 426.105 930.923C426.226 930.656 426.402 930.448 426.631 930.299C426.863 930.149 427.142 930.074 427.467 930.074C427.783 930.074 428.051 930.143 428.269 930.279C428.488 930.416 428.654 930.609 428.767 930.858C428.882 931.105 428.939 931.398 428.939 931.738V931.959H426.531ZM426.534 931.553H428.36C428.36 931.36 428.328 931.187 428.263 931.033C428.198 930.877 428.098 930.755 427.964 930.666C427.832 930.575 427.665 930.529 427.463 930.529C427.253 930.529 427.079 930.58 426.94 930.682C426.804 930.782 426.701 930.911 426.631 931.069C426.564 931.225 426.532 931.386 426.534 931.553ZM432.925 930.578H432.168V932.668C432.168 932.787 432.18 932.875 432.204 932.931C432.23 932.985 432.272 933.02 432.331 933.035C432.391 933.05 432.474 933.058 432.578 933.058H432.945V933.461C432.904 933.476 432.841 933.489 432.756 933.5C432.674 933.511 432.571 933.516 432.448 933.516C432.216 933.516 432.036 933.485 431.908 933.422C431.78 933.359 431.69 933.266 431.638 933.142C431.588 933.019 431.564 932.867 431.564 932.688V930.578H431.018V930.139H431.58L431.726 929.161H432.168V930.136H432.925V930.578ZM435.036 933.565C434.726 933.565 434.455 933.499 434.223 933.367C433.991 933.232 433.811 933.036 433.684 932.778C433.556 932.521 433.492 932.205 433.492 931.833C433.492 931.482 433.551 931.174 433.671 930.91C433.79 930.645 433.964 930.441 434.194 930.295C434.426 930.148 434.706 930.074 435.036 930.074C435.345 930.074 435.614 930.143 435.842 930.279C436.071 930.414 436.249 930.612 436.375 930.874C436.5 931.136 436.563 931.456 436.563 931.833C436.563 932.175 436.505 932.476 436.388 932.736C436.273 932.996 436.102 933.2 435.874 933.347C435.649 933.492 435.369 933.565 435.036 933.565ZM435.036 933.09C435.237 933.09 435.407 933.04 435.546 932.938C435.685 932.836 435.79 932.69 435.861 932.499C435.933 932.308 435.968 932.082 435.968 931.82C435.968 931.579 435.937 931.364 435.874 931.173C435.811 930.98 435.711 930.827 435.572 930.715C435.435 930.602 435.257 930.546 435.036 930.546C434.832 930.546 434.66 930.597 434.519 930.698C434.378 930.798 434.271 930.943 434.197 931.134C434.126 931.325 434.09 931.553 434.09 931.82C434.09 932.056 434.122 932.27 434.187 932.463C434.252 932.656 434.354 932.809 434.493 932.921C434.632 933.034 434.812 933.09 435.036 933.09ZM438.949 930.578H438.192V932.668C438.192 932.787 438.204 932.875 438.228 932.931C438.254 932.985 438.296 933.02 438.354 933.035C438.415 933.05 438.497 933.058 438.601 933.058H438.969V933.461C438.928 933.476 438.865 933.489 438.78 933.5C438.698 933.511 438.595 933.516 438.471 933.516C438.24 933.516 438.06 933.485 437.932 933.422C437.804 933.359 437.714 933.266 437.662 933.142C437.612 933.019 437.587 932.867 437.587 932.688V930.578H437.041V930.139H437.604L437.75 929.161H438.192V930.136H438.949V930.578ZM440.717 933.565C440.5 933.565 440.308 933.527 440.142 933.451C439.975 933.373 439.844 933.262 439.748 933.116C439.655 932.971 439.609 932.796 439.609 932.59C439.609 932.217 439.739 931.94 439.999 931.758C440.259 931.576 440.676 931.478 441.25 931.465L441.851 931.449V931.186C441.851 930.98 441.789 930.818 441.666 930.698C441.542 930.577 441.351 930.516 441.091 930.516C440.898 930.519 440.728 930.564 440.58 930.653C440.435 930.742 440.341 930.887 440.298 931.088H439.768C439.781 930.87 439.843 930.685 439.953 930.536C440.064 930.384 440.217 930.269 440.415 930.191C440.614 930.113 440.849 930.074 441.12 930.074C441.412 930.074 441.655 930.116 441.848 930.198C442.043 930.28 442.188 930.402 442.283 930.562C442.381 930.722 442.43 930.919 442.43 931.153V933.5H441.916L441.874 932.869C441.744 933.132 441.578 933.314 441.377 933.415C441.177 933.515 440.957 933.565 440.717 933.565ZM440.899 933.133C441.011 933.133 441.123 933.112 441.234 933.071C441.346 933.03 441.449 932.975 441.542 932.905C441.635 932.834 441.709 932.755 441.763 932.668C441.82 932.579 441.849 932.488 441.851 932.395V931.82L441.351 931.83C441.095 931.834 440.88 931.86 440.707 931.907C440.536 931.955 440.407 932.03 440.32 932.132C440.236 932.234 440.194 932.367 440.194 932.531C440.194 932.72 440.259 932.867 440.389 932.973C440.521 933.08 440.691 933.133 440.899 933.133ZM444.304 933.542C444.122 933.542 443.975 933.517 443.862 933.467C443.752 933.418 443.666 933.35 443.606 933.266C443.547 933.181 443.507 933.085 443.485 932.977C443.466 932.866 443.456 932.752 443.456 932.635V928.67H444.048V932.577C444.048 932.746 444.08 932.873 444.145 932.957C444.212 933.042 444.306 933.088 444.425 933.097L444.607 933.1V933.49C444.557 933.505 444.505 933.517 444.451 933.526C444.397 933.537 444.348 933.542 444.304 933.542ZM447.82 933.565C447.603 933.565 447.411 933.527 447.245 933.451C447.078 933.373 446.947 933.262 446.851 933.116C446.758 932.971 446.712 932.796 446.712 932.59C446.712 932.217 446.842 931.94 447.102 931.758C447.362 931.576 447.779 931.478 448.353 931.465L448.954 931.449V931.186C448.954 930.98 448.892 930.818 448.769 930.698C448.645 930.577 448.454 930.516 448.194 930.516C448.001 930.519 447.831 930.564 447.683 930.653C447.538 930.742 447.444 930.887 447.401 931.088H446.871C446.884 930.87 446.946 930.685 447.056 930.536C447.167 930.384 447.32 930.269 447.518 930.191C447.717 930.113 447.952 930.074 448.223 930.074C448.515 930.074 448.758 930.116 448.951 930.198C449.146 930.28 449.291 930.402 449.386 930.562C449.484 930.722 449.533 930.919 449.533 931.153V933.5H449.019L448.977 932.869C448.847 933.132 448.681 933.314 448.48 933.415C448.28 933.515 448.06 933.565 447.82 933.565ZM448.002 933.133C448.114 933.133 448.226 933.112 448.337 933.071C448.449 933.03 448.552 932.975 448.645 932.905C448.738 932.834 448.812 932.755 448.866 932.668C448.923 932.579 448.952 932.488 448.954 932.395V931.82L448.454 931.83C448.198 931.834 447.983 931.86 447.81 931.907C447.639 931.955 447.51 932.03 447.423 932.132C447.339 932.234 447.297 932.367 447.297 932.531C447.297 932.72 447.362 932.867 447.492 932.973C447.624 933.08 447.794 933.133 448.002 933.133ZM450.559 933.5V930.139H451.138V930.627C451.231 930.48 451.359 930.351 451.521 930.24C451.684 930.13 451.895 930.074 452.155 930.074C452.276 930.074 452.4 930.095 452.526 930.136C452.653 930.177 452.77 930.239 452.877 930.321C452.983 930.404 453.065 930.505 453.124 930.624C453.228 930.459 453.368 930.327 453.546 930.227C453.724 930.125 453.924 930.074 454.147 930.074C454.264 930.074 454.387 930.093 454.515 930.13C454.642 930.164 454.76 930.227 454.869 930.318C454.979 930.407 455.069 930.532 455.139 930.692C455.208 930.85 455.243 931.054 455.243 931.303V933.5H454.638V931.361C454.638 931.158 454.606 931.001 454.541 930.89C454.476 930.778 454.39 930.698 454.284 930.653C454.18 930.607 454.068 930.585 453.949 930.585C453.845 930.585 453.735 930.605 453.618 930.646C453.501 930.688 453.401 930.757 453.319 930.854C453.236 930.952 453.195 931.085 453.195 931.254V933.5H452.597V931.186C452.597 931.054 452.561 930.943 452.49 930.854C452.42 930.766 452.333 930.698 452.227 930.653C452.123 930.607 452.019 930.585 451.915 930.585C451.8 930.585 451.684 930.607 451.567 930.653C451.452 930.698 451.354 930.771 451.274 930.871C451.196 930.968 451.157 931.096 451.157 931.254V933.5H450.559ZM457.519 933.565C457.209 933.565 456.938 933.499 456.707 933.367C456.475 933.232 456.295 933.036 456.167 932.778C456.039 932.521 455.975 932.205 455.975 931.833C455.975 931.482 456.035 931.174 456.154 930.91C456.273 930.645 456.448 930.441 456.677 930.295C456.909 930.148 457.19 930.074 457.519 930.074C457.829 930.074 458.098 930.143 458.325 930.279C458.555 930.414 458.732 930.612 458.858 930.874C458.984 931.136 459.047 931.456 459.047 931.833C459.047 932.175 458.988 932.476 458.871 932.736C458.756 932.996 458.585 933.2 458.358 933.347C458.132 933.492 457.853 933.565 457.519 933.565ZM457.519 933.09C457.721 933.09 457.891 933.04 458.029 932.938C458.168 932.836 458.273 932.69 458.345 932.499C458.416 932.308 458.452 932.082 458.452 931.82C458.452 931.579 458.42 931.364 458.358 931.173C458.295 930.98 458.194 930.827 458.055 930.715C457.919 930.602 457.74 930.546 457.519 930.546C457.315 930.546 457.143 930.597 457.002 930.698C456.861 930.798 456.754 930.943 456.681 931.134C456.609 931.325 456.573 931.553 456.573 931.82C456.573 932.056 456.606 932.27 456.671 932.463C456.736 932.656 456.838 932.809 456.976 932.921C457.115 933.034 457.296 933.09 457.519 933.09ZM461.011 933.565C460.836 933.563 460.67 933.538 460.514 933.49C460.36 933.44 460.223 933.368 460.104 933.272C459.985 933.177 459.891 933.059 459.822 932.918C459.754 932.775 459.721 932.609 459.721 932.421V930.139H460.322V932.359C460.322 932.578 460.389 932.756 460.524 932.892C460.66 933.029 460.865 933.097 461.138 933.097C461.385 933.097 461.583 933.033 461.733 932.905C461.884 932.775 461.96 932.582 461.96 932.327V930.139H462.558V933.5H462.08L462.019 932.856C461.977 933.025 461.907 933.162 461.807 933.266C461.71 933.37 461.592 933.447 461.453 933.497C461.317 933.544 461.169 933.567 461.011 933.565ZM463.54 933.5V930.139H464.122V930.627C464.176 930.534 464.251 930.446 464.346 930.364C464.444 930.281 464.561 930.215 464.697 930.165C464.836 930.116 464.995 930.091 465.175 930.091C465.387 930.091 465.582 930.133 465.76 930.218C465.94 930.302 466.083 930.434 466.189 930.614C466.297 930.792 466.351 931.021 466.351 931.303V933.5H465.75V931.361C465.75 931.099 465.681 930.905 465.542 930.78C465.406 930.652 465.228 930.588 465.009 930.588C464.858 930.588 464.716 930.613 464.583 930.663C464.451 930.71 464.344 930.784 464.262 930.884C464.179 930.981 464.138 931.105 464.138 931.254V933.5H463.54ZM468.84 930.578H468.083V932.668C468.083 932.787 468.095 932.875 468.119 932.931C468.145 932.985 468.187 933.02 468.246 933.035C468.306 933.05 468.389 933.058 468.493 933.058H468.86V933.461C468.819 933.476 468.756 933.489 468.671 933.5C468.589 933.511 468.486 933.516 468.363 933.516C468.131 933.516 467.951 933.485 467.823 933.422C467.695 933.359 467.605 933.266 467.553 933.142C467.503 933.019 467.479 932.867 467.479 932.688V930.578H466.933V930.139H467.495L467.641 929.161H468.083V930.136H468.84V930.578ZM472.332 933.565C471.896 933.565 471.55 933.415 471.295 933.116C471.039 932.817 470.911 932.381 470.911 931.807C470.911 931.458 470.962 931.153 471.064 930.893C471.168 930.633 471.322 930.432 471.526 930.289C471.729 930.146 471.983 930.074 472.286 930.074C472.446 930.074 472.588 930.095 472.712 930.136C472.837 930.177 472.946 930.229 473.037 930.292C473.128 930.355 473.201 930.42 473.258 930.487C473.316 930.554 473.36 930.616 473.388 930.672V928.67H473.992V933.5H473.534L473.469 932.811C473.447 932.876 473.413 932.952 473.365 933.038C473.317 933.123 473.25 933.206 473.164 933.289C473.077 933.369 472.965 933.435 472.829 933.487C472.694 933.539 472.529 933.565 472.332 933.565ZM472.439 933.103C472.779 933.103 473.022 933.001 473.167 932.795C473.314 932.587 473.388 932.248 473.388 931.777C473.386 931.515 473.352 931.292 473.287 931.108C473.224 930.924 473.125 930.784 472.988 930.689C472.854 930.591 472.675 930.542 472.452 930.542C472.174 930.542 471.949 930.641 471.776 930.838C471.602 931.035 471.516 931.348 471.516 931.777C471.516 932.198 471.594 932.524 471.75 932.756C471.908 932.988 472.138 933.103 472.439 933.103ZM475.414 931.959C475.414 932.172 475.449 932.365 475.518 932.538C475.59 932.709 475.697 932.846 475.84 932.947C475.985 933.049 476.166 933.1 476.383 933.1C476.597 933.1 476.781 933.05 476.935 932.951C477.091 932.851 477.191 932.707 477.234 932.518H477.803C477.762 932.746 477.671 932.938 477.53 933.094C477.389 933.25 477.219 933.368 477.02 933.448C476.82 933.526 476.612 933.565 476.396 933.565C476.081 933.565 475.805 933.497 475.567 933.36C475.328 933.224 475.142 933.028 475.008 932.772C474.873 932.516 474.806 932.21 474.806 931.852C474.806 931.499 474.867 931.189 474.988 930.923C475.11 930.656 475.285 930.448 475.515 930.299C475.747 930.149 476.025 930.074 476.35 930.074C476.666 930.074 476.934 930.143 477.153 930.279C477.372 930.416 477.537 930.609 477.65 930.858C477.765 931.105 477.822 931.398 477.822 931.738V931.959H475.414ZM475.417 931.553H477.244C477.244 931.36 477.211 931.187 477.146 931.033C477.081 930.877 476.982 930.755 476.847 930.666C476.715 930.575 476.548 930.529 476.347 930.529C476.137 930.529 475.962 930.58 475.824 930.682C475.687 930.782 475.584 930.911 475.515 931.069C475.448 931.225 475.415 931.386 475.417 931.553ZM479.86 933.565C479.424 933.565 479.079 933.415 478.823 933.116C478.567 932.817 478.44 932.381 478.44 931.807C478.44 931.458 478.491 931.153 478.592 930.893C478.696 930.633 478.85 930.432 479.054 930.289C479.258 930.146 479.511 930.074 479.814 930.074C479.975 930.074 480.117 930.095 480.24 930.136C480.366 930.177 480.474 930.229 480.565 930.292C480.656 930.355 480.73 930.42 480.786 930.487C480.845 930.554 480.888 930.616 480.916 930.672V928.67H481.521V933.5H481.062L480.997 932.811C480.976 932.876 480.941 932.952 480.893 933.038C480.846 933.123 480.779 933.206 480.692 933.289C480.605 933.369 480.494 933.435 480.357 933.487C480.223 933.539 480.057 933.565 479.86 933.565ZM479.967 933.103C480.307 933.103 480.55 933.001 480.695 932.795C480.842 932.587 480.916 932.248 480.916 931.777C480.914 931.515 480.88 931.292 480.815 931.108C480.753 930.924 480.653 930.784 480.516 930.689C480.382 930.591 480.203 930.542 479.98 930.542C479.703 930.542 479.477 930.641 479.304 930.838C479.131 931.035 479.044 931.348 479.044 931.777C479.044 932.198 479.122 932.524 479.278 932.756C479.436 932.988 479.666 933.103 479.967 933.103ZM483.748 933.565C483.573 933.563 483.407 933.538 483.251 933.49C483.097 933.44 482.961 933.368 482.842 933.272C482.722 933.177 482.628 933.059 482.559 932.918C482.492 932.775 482.458 932.609 482.458 932.421V930.139H483.059V932.359C483.059 932.578 483.127 932.756 483.261 932.892C483.397 933.029 483.602 933.097 483.875 933.097C484.122 933.097 484.32 933.033 484.47 932.905C484.622 932.775 484.697 932.582 484.697 932.327V930.139H485.295V933.5H484.818L484.756 932.856C484.715 933.025 484.644 933.162 484.545 933.266C484.447 933.37 484.329 933.447 484.19 933.497C484.054 933.544 483.907 933.567 483.748 933.565ZM487.572 930.074C487.813 930.074 488.029 930.121 488.222 930.214C488.415 930.305 488.572 930.435 488.693 930.604C488.817 930.773 488.894 930.973 488.924 931.202H488.391C488.372 931.085 488.326 930.978 488.255 930.88C488.185 930.783 488.093 930.705 487.978 930.646C487.864 930.588 487.729 930.559 487.575 930.559C487.287 930.559 487.053 930.663 486.873 930.871C486.694 931.079 486.604 931.397 486.604 931.826C486.604 932.214 486.686 932.525 486.851 932.759C487.017 932.991 487.262 933.107 487.585 933.107C487.739 933.107 487.872 933.077 487.985 933.019C488.1 932.958 488.192 932.879 488.261 932.782C488.33 932.682 488.375 932.576 488.394 932.463H488.918C488.889 932.689 488.814 932.884 488.69 933.048C488.567 933.213 488.408 933.341 488.216 933.432C488.025 933.521 487.81 933.565 487.572 933.565C487.271 933.565 487.003 933.499 486.769 933.367C486.538 933.235 486.356 933.04 486.223 932.782C486.091 932.524 486.025 932.208 486.025 931.833C486.025 931.482 486.085 931.175 486.204 930.913C486.325 930.649 486.501 930.443 486.73 930.295C486.962 930.148 487.243 930.074 487.572 930.074ZM491.336 930.578H490.579V932.668C490.579 932.787 490.591 932.875 490.615 932.931C490.641 932.985 490.683 933.02 490.742 933.035C490.802 933.05 490.885 933.058 490.989 933.058H491.356V933.461C491.315 933.476 491.252 933.489 491.167 933.5C491.085 933.511 490.982 933.516 490.859 933.516C490.627 933.516 490.447 933.485 490.319 933.422C490.191 933.359 490.101 933.266 490.049 933.142C490 933.019 489.975 932.867 489.975 932.688V930.578H489.429V930.139H489.991L490.137 929.161H490.579V930.136H491.336V930.578ZM492.54 931.959C492.54 932.172 492.575 932.365 492.644 932.538C492.716 932.709 492.823 932.846 492.966 932.947C493.111 933.049 493.292 933.1 493.509 933.1C493.723 933.1 493.907 933.05 494.061 932.951C494.217 932.851 494.317 932.707 494.36 932.518H494.929C494.888 932.746 494.797 932.938 494.656 933.094C494.515 933.25 494.345 933.368 494.146 933.448C493.946 933.526 493.738 933.565 493.522 933.565C493.207 933.565 492.931 933.497 492.693 933.36C492.454 933.224 492.268 933.028 492.134 932.772C491.999 932.516 491.932 932.21 491.932 931.852C491.932 931.499 491.993 931.189 492.114 930.923C492.236 930.656 492.411 930.448 492.641 930.299C492.873 930.149 493.151 930.074 493.476 930.074C493.792 930.074 494.06 930.143 494.279 930.279C494.498 930.416 494.663 930.609 494.776 930.858C494.891 931.105 494.948 931.398 494.948 931.738V931.959H492.54ZM492.543 931.553H494.37C494.37 931.36 494.337 931.187 494.272 931.033C494.207 930.877 494.108 930.755 493.973 930.666C493.841 930.575 493.674 930.529 493.473 930.529C493.263 930.529 493.088 930.58 492.95 930.682C492.813 930.782 492.71 930.911 492.641 931.069C492.574 931.225 492.541 931.386 492.543 931.553ZM496.986 933.565C496.55 933.565 496.205 933.415 495.949 933.116C495.693 932.817 495.566 932.381 495.566 931.807C495.566 931.458 495.617 931.153 495.718 930.893C495.822 930.633 495.976 930.432 496.18 930.289C496.384 930.146 496.637 930.074 496.94 930.074C497.101 930.074 497.243 930.095 497.366 930.136C497.492 930.177 497.6 930.229 497.691 930.292C497.782 930.355 497.856 930.42 497.912 930.487C497.971 930.554 498.014 930.616 498.042 930.672V928.67H498.647V933.5H498.188L498.123 932.811C498.102 932.876 498.067 932.952 498.019 933.038C497.972 933.123 497.905 933.206 497.818 933.289C497.731 933.369 497.62 933.435 497.483 933.487C497.349 933.539 497.183 933.565 496.986 933.565ZM497.093 933.103C497.433 933.103 497.676 933.001 497.821 932.795C497.968 932.587 498.042 932.248 498.042 931.777C498.04 931.515 498.006 931.292 497.941 931.108C497.879 930.924 497.779 930.784 497.642 930.689C497.508 930.591 497.329 930.542 497.106 930.542C496.829 930.542 496.603 930.641 496.43 930.838C496.257 931.035 496.17 931.348 496.17 931.777C496.17 932.198 496.248 932.524 496.404 932.756C496.562 932.988 496.792 933.103 497.093 933.103ZM503.035 930.139V930.578H502.22V933.5H501.615V930.578H500.907V930.139H501.615V929.619C501.615 929.353 501.683 929.15 501.82 929.012C501.956 928.871 502.16 928.8 502.431 928.8H503.065L503.068 929.226H502.564C502.428 929.226 502.334 929.263 502.285 929.337C502.235 929.41 502.21 929.522 502.21 929.671V930.139H503.035ZM503.778 933.5V930.139H504.35V930.786C504.406 930.626 504.485 930.494 504.587 930.39C504.689 930.284 504.805 930.204 504.935 930.152C505.067 930.1 505.204 930.074 505.345 930.074C505.394 930.074 505.443 930.078 505.491 930.084C505.538 930.091 505.575 930.102 505.601 930.117V930.698C505.569 930.683 505.527 930.674 505.475 930.669C505.425 930.663 505.382 930.659 505.348 930.659C505.213 930.651 505.088 930.659 504.971 930.685C504.854 930.709 504.751 930.752 504.662 930.812C504.573 930.873 504.503 930.953 504.451 931.053C504.401 931.15 504.376 931.269 504.376 931.41V933.5H503.778ZM507.558 933.565C507.248 933.565 506.977 933.499 506.745 933.367C506.513 933.232 506.333 933.036 506.206 932.778C506.078 932.521 506.014 932.205 506.014 931.833C506.014 931.482 506.073 931.174 506.193 930.91C506.312 930.645 506.486 930.441 506.716 930.295C506.948 930.148 507.228 930.074 507.558 930.074C507.867 930.074 508.136 930.143 508.364 930.279C508.593 930.414 508.771 930.612 508.897 930.874C509.022 931.136 509.085 931.456 509.085 931.833C509.085 932.175 509.027 932.476 508.91 932.736C508.795 932.996 508.624 933.2 508.396 933.347C508.171 933.492 507.891 933.565 507.558 933.565ZM507.558 933.09C507.759 933.09 507.929 933.04 508.068 932.938C508.207 932.836 508.312 932.69 508.383 932.499C508.455 932.308 508.49 932.082 508.49 931.82C508.49 931.579 508.459 931.364 508.396 931.173C508.333 930.98 508.233 930.827 508.094 930.715C507.957 930.602 507.779 930.546 507.558 930.546C507.354 930.546 507.182 930.597 507.041 930.698C506.9 930.798 506.793 930.943 506.719 931.134C506.648 931.325 506.612 931.553 506.612 931.82C506.612 932.056 506.644 932.27 506.709 932.463C506.774 932.656 506.876 932.809 507.015 932.921C507.154 933.034 507.334 933.09 507.558 933.09ZM509.872 933.5V930.139H510.45V930.627C510.543 930.48 510.671 930.351 510.834 930.24C510.996 930.13 511.208 930.074 511.468 930.074C511.589 930.074 511.712 930.095 511.838 930.136C511.966 930.177 512.083 930.239 512.189 930.321C512.295 930.404 512.378 930.505 512.436 930.624C512.54 930.459 512.681 930.327 512.859 930.227C513.036 930.125 513.237 930.074 513.46 930.074C513.577 930.074 513.699 930.093 513.827 930.13C513.955 930.164 514.073 930.227 514.181 930.318C514.292 930.407 514.382 930.532 514.451 930.692C514.52 930.85 514.555 931.054 514.555 931.303V933.5H513.951V931.361C513.951 931.158 513.918 931.001 513.853 930.89C513.788 930.778 513.702 930.698 513.596 930.653C513.492 930.607 513.381 930.585 513.262 930.585C513.158 930.585 513.047 930.605 512.93 930.646C512.813 930.688 512.713 930.757 512.631 930.854C512.549 930.952 512.508 931.085 512.508 931.254V933.5H511.91V931.186C511.91 931.054 511.874 930.943 511.802 930.854C511.733 930.766 511.645 930.698 511.539 930.653C511.435 930.607 511.331 930.585 511.227 930.585C511.112 930.585 510.996 930.607 510.879 930.653C510.764 930.698 510.667 930.771 510.587 930.871C510.509 930.968 510.47 931.096 510.47 931.254V933.5H509.872ZM517.281 934.573C517.084 934.573 516.948 934.558 516.875 934.53C516.801 934.502 516.764 934.488 516.764 934.488V934.098L517.105 934.105C517.231 934.109 517.335 934.1 517.417 934.079C517.5 934.057 517.566 934.028 517.616 933.991C517.665 933.954 517.703 933.913 517.729 933.867C517.758 933.822 517.78 933.778 517.798 933.737L517.915 933.419L516.602 930.139H517.209L518.201 932.733L519.185 930.139H519.774L518.357 933.754C518.27 933.966 518.172 934.132 518.064 934.251C517.958 934.37 517.839 934.453 517.707 934.501C517.577 934.549 517.435 934.573 517.281 934.573ZM521.63 933.565C521.321 933.565 521.05 933.499 520.818 933.367C520.586 933.232 520.406 933.036 520.278 932.778C520.151 932.521 520.087 932.205 520.087 931.833C520.087 931.482 520.146 931.174 520.265 930.91C520.385 930.645 520.559 930.441 520.789 930.295C521.02 930.148 521.301 930.074 521.63 930.074C521.94 930.074 522.209 930.143 522.436 930.279C522.666 930.414 522.844 930.612 522.969 930.874C523.095 931.136 523.158 931.456 523.158 931.833C523.158 932.175 523.099 932.476 522.982 932.736C522.868 932.996 522.696 933.2 522.469 933.347C522.244 933.492 521.964 933.565 521.63 933.565ZM521.63 933.09C521.832 933.09 522.002 933.04 522.141 932.938C522.279 932.836 522.384 932.69 522.456 932.499C522.527 932.308 522.563 932.082 522.563 931.82C522.563 931.579 522.532 931.364 522.469 931.173C522.406 930.98 522.305 930.827 522.167 930.715C522.03 930.602 521.851 930.546 521.63 930.546C521.427 930.546 521.254 930.597 521.114 930.698C520.973 930.798 520.866 930.943 520.792 931.134C520.72 931.325 520.685 931.553 520.685 931.82C520.685 932.056 520.717 932.27 520.782 932.463C520.847 932.656 520.949 932.809 521.088 932.921C521.226 933.034 521.407 933.09 521.63 933.09ZM525.122 933.565C524.947 933.563 524.781 933.538 524.625 933.49C524.471 933.44 524.335 933.368 524.216 933.272C524.096 933.177 524.002 933.059 523.933 932.918C523.866 932.775 523.832 932.609 523.832 932.421V930.139H524.433V932.359C524.433 932.578 524.501 932.756 524.635 932.892C524.771 933.029 524.976 933.097 525.249 933.097C525.496 933.097 525.694 933.033 525.844 932.905C525.996 932.775 526.071 932.582 526.071 932.327V930.139H526.669V933.5H526.192L526.13 932.856C526.089 933.025 526.018 933.162 525.919 933.266C525.821 933.37 525.703 933.447 525.564 933.497C525.428 933.544 525.281 933.567 525.122 933.565ZM527.652 933.5V930.139H528.224V930.786C528.28 930.626 528.359 930.494 528.461 930.39C528.563 930.284 528.679 930.204 528.809 930.152C528.941 930.1 529.077 930.074 529.218 930.074C529.268 930.074 529.317 930.078 529.364 930.084C529.412 930.091 529.449 930.102 529.475 930.117V930.698C529.442 930.683 529.4 930.674 529.348 930.669C529.298 930.663 529.256 930.659 529.221 930.659C529.087 930.651 528.961 930.659 528.844 930.685C528.727 930.709 528.624 930.752 528.536 930.812C528.447 930.873 528.376 930.953 528.324 931.053C528.274 931.15 528.25 931.269 528.25 931.41V933.5H527.652ZM419.427 942.565C419.21 942.565 419.018 942.527 418.852 942.451C418.685 942.373 418.554 942.262 418.458 942.116C418.365 941.971 418.319 941.796 418.319 941.59C418.319 941.217 418.449 940.94 418.709 940.758C418.969 940.576 419.386 940.478 419.96 940.465L420.561 940.449V940.186C420.561 939.98 420.499 939.818 420.376 939.698C420.252 939.577 420.061 939.516 419.801 939.516C419.608 939.519 419.438 939.564 419.29 939.653C419.145 939.742 419.051 939.887 419.008 940.088H418.478C418.491 939.87 418.553 939.685 418.663 939.536C418.774 939.384 418.927 939.269 419.125 939.191C419.324 939.113 419.559 939.074 419.83 939.074C420.122 939.074 420.365 939.116 420.558 939.198C420.753 939.28 420.898 939.402 420.993 939.562C421.091 939.722 421.14 939.919 421.14 940.153V942.5H420.626L420.584 941.869C420.454 942.132 420.288 942.314 420.087 942.415C419.887 942.515 419.667 942.565 419.427 942.565ZM419.609 942.133C419.721 942.133 419.833 942.112 419.944 942.071C420.056 942.03 420.159 941.975 420.252 941.905C420.345 941.834 420.419 941.755 420.473 941.668C420.53 941.579 420.559 941.488 420.561 941.395V940.82L420.061 940.83C419.805 940.834 419.59 940.86 419.417 940.907C419.246 940.955 419.117 941.03 419.03 941.132C418.946 941.234 418.904 941.367 418.904 941.531C418.904 941.72 418.969 941.867 419.099 941.973C419.231 942.08 419.401 942.133 419.609 942.133ZM423.505 939.074C423.746 939.074 423.962 939.121 424.155 939.214C424.348 939.305 424.505 939.435 424.626 939.604C424.75 939.773 424.827 939.973 424.857 940.202H424.324C424.305 940.085 424.259 939.978 424.188 939.88C424.118 939.783 424.026 939.705 423.911 939.646C423.797 939.588 423.662 939.559 423.508 939.559C423.22 939.559 422.986 939.663 422.806 939.871C422.627 940.079 422.537 940.397 422.537 940.826C422.537 941.214 422.619 941.525 422.784 941.759C422.951 941.991 423.195 942.107 423.518 942.107C423.672 942.107 423.805 942.077 423.918 942.019C424.033 941.958 424.125 941.879 424.194 941.782C424.264 941.682 424.308 941.576 424.327 941.463H424.851C424.823 941.689 424.747 941.884 424.623 942.048C424.5 942.213 424.342 942.341 424.149 942.432C423.958 942.521 423.744 942.565 423.505 942.565C423.204 942.565 422.936 942.499 422.702 942.367C422.471 942.235 422.289 942.04 422.156 941.782C422.024 941.524 421.958 941.208 421.958 940.833C421.958 940.482 422.018 940.175 422.137 939.913C422.258 939.649 422.434 939.443 422.663 939.295C422.895 939.148 423.176 939.074 423.505 939.074ZM427.009 939.074C427.25 939.074 427.466 939.121 427.659 939.214C427.852 939.305 428.009 939.435 428.13 939.604C428.254 939.773 428.331 939.973 428.361 940.202H427.828C427.809 940.085 427.763 939.978 427.692 939.88C427.622 939.783 427.53 939.705 427.415 939.646C427.301 939.588 427.166 939.559 427.012 939.559C426.724 939.559 426.49 939.663 426.31 939.871C426.131 940.079 426.041 940.397 426.041 940.826C426.041 941.214 426.123 941.525 426.288 941.759C426.454 941.991 426.699 942.107 427.022 942.107C427.176 942.107 427.309 942.077 427.422 942.019C427.537 941.958 427.629 941.879 427.698 941.782C427.767 941.682 427.812 941.576 427.831 941.463H428.355C428.326 941.689 428.251 941.884 428.127 942.048C428.004 942.213 427.845 942.341 427.653 942.432C427.462 942.521 427.247 942.565 427.009 942.565C426.708 942.565 426.44 942.499 426.206 942.367C425.975 942.235 425.793 942.04 425.66 941.782C425.528 941.524 425.462 941.208 425.462 940.833C425.462 940.482 425.522 940.175 425.641 939.913C425.762 939.649 425.938 939.443 426.167 939.295C426.399 939.148 426.68 939.074 427.009 939.074ZM430.51 942.565C430.2 942.565 429.929 942.499 429.697 942.367C429.465 942.232 429.286 942.036 429.158 941.778C429.03 941.521 428.966 941.205 428.966 940.833C428.966 940.482 429.026 940.174 429.145 939.91C429.264 939.645 429.438 939.441 429.668 939.295C429.9 939.148 430.18 939.074 430.51 939.074C430.82 939.074 431.088 939.143 431.316 939.279C431.545 939.414 431.723 939.612 431.849 939.874C431.974 940.136 432.037 940.456 432.037 940.833C432.037 941.175 431.979 941.476 431.862 941.736C431.747 941.996 431.576 942.2 431.348 942.347C431.123 942.492 430.843 942.565 430.51 942.565ZM430.51 942.09C430.711 942.09 430.881 942.04 431.02 941.938C431.159 941.836 431.264 941.69 431.335 941.499C431.407 941.308 431.443 941.082 431.443 940.82C431.443 940.579 431.411 940.364 431.348 940.173C431.285 939.98 431.185 939.827 431.046 939.715C430.91 939.602 430.731 939.546 430.51 939.546C430.306 939.546 430.134 939.597 429.993 939.698C429.852 939.798 429.745 939.943 429.671 940.134C429.6 940.325 429.564 940.553 429.564 940.82C429.564 941.056 429.597 941.27 429.662 941.463C429.727 941.656 429.828 941.809 429.967 941.921C430.106 942.034 430.287 942.09 430.51 942.09ZM434.002 942.565C433.826 942.563 433.661 942.538 433.505 942.49C433.351 942.44 433.214 942.368 433.095 942.272C432.976 942.177 432.882 942.059 432.812 941.918C432.745 941.775 432.712 941.609 432.712 941.421V939.139H433.313V941.359C433.313 941.578 433.38 941.756 433.514 941.892C433.651 942.029 433.856 942.097 434.129 942.097C434.376 942.097 434.574 942.033 434.723 941.905C434.875 941.775 434.951 941.582 434.951 941.327V939.139H435.549V942.5H435.071L435.009 941.856C434.968 942.025 434.898 942.162 434.798 942.266C434.701 942.37 434.582 942.447 434.444 942.497C434.307 942.544 434.16 942.567 434.002 942.565ZM436.531 942.5V939.139H437.113V939.627C437.167 939.534 437.242 939.446 437.337 939.364C437.434 939.281 437.551 939.215 437.688 939.165C437.827 939.116 437.986 939.091 438.166 939.091C438.378 939.091 438.573 939.133 438.751 939.218C438.931 939.302 439.074 939.434 439.18 939.614C439.288 939.792 439.342 940.021 439.342 940.303V942.5H438.741V940.361C438.741 940.099 438.672 939.905 438.533 939.78C438.396 939.652 438.219 939.588 438 939.588C437.848 939.588 437.706 939.613 437.574 939.663C437.442 939.71 437.335 939.784 437.252 939.884C437.17 939.981 437.129 940.105 437.129 940.254V942.5H436.531ZM441.831 939.578H441.074V941.668C441.074 941.787 441.086 941.875 441.11 941.931C441.136 941.985 441.178 942.02 441.236 942.035C441.297 942.05 441.379 942.058 441.483 942.058H441.851V942.461C441.809 942.476 441.747 942.489 441.662 942.5C441.58 942.511 441.477 942.516 441.353 942.516C441.121 942.516 440.942 942.485 440.814 942.422C440.686 942.359 440.596 942.266 440.544 942.142C440.494 942.019 440.469 941.867 440.469 941.688V939.578H439.923V939.139H440.486L440.632 938.161H441.074V939.136H441.831V939.578ZM444.843 939.139V942.5H444.261V939.139H444.843ZM444.856 937.804V938.428H444.241V937.804H444.856ZM447.093 942.565C446.859 942.565 446.641 942.529 446.44 942.458C446.24 942.384 446.074 942.27 445.942 942.116C445.81 941.96 445.727 941.762 445.692 941.522H446.238C446.268 941.654 446.323 941.764 446.401 941.853C446.481 941.94 446.58 942.006 446.7 942.051C446.819 942.095 446.949 942.116 447.09 942.116C447.315 942.116 447.497 942.074 447.636 941.99C447.774 941.905 447.844 941.775 447.844 941.6C447.844 941.476 447.807 941.378 447.733 941.304C447.662 941.228 447.55 941.173 447.398 941.138L446.703 940.966C446.432 940.901 446.215 940.799 446.053 940.66C445.89 940.522 445.809 940.328 445.809 940.079C445.807 939.882 445.853 939.708 445.949 939.559C446.044 939.409 446.187 939.291 446.378 939.204C446.568 939.118 446.806 939.074 447.09 939.074C447.454 939.074 447.747 939.157 447.97 939.321C448.196 939.484 448.313 939.723 448.321 940.04H447.792C447.77 939.879 447.697 939.753 447.574 939.659C447.452 939.564 447.289 939.516 447.083 939.516C446.869 939.516 446.694 939.56 446.56 939.646C446.425 939.731 446.358 939.863 446.358 940.043C446.358 940.162 446.406 940.256 446.501 940.326C446.597 940.393 446.737 940.449 446.924 940.495L447.597 940.664C447.753 940.705 447.88 940.759 447.98 940.826C448.082 940.893 448.162 940.968 448.221 941.05C448.281 941.133 448.323 941.219 448.347 941.31C448.373 941.399 448.386 941.485 448.386 941.567C448.386 941.773 448.334 941.951 448.23 942.1C448.128 942.248 447.981 942.362 447.788 942.445C447.598 942.525 447.366 942.565 447.093 942.565ZM454.393 940.709C454.393 941.088 454.331 941.418 454.208 941.697C454.084 941.975 453.884 942.189 453.607 942.341C453.332 942.49 452.966 942.565 452.511 942.565C452.054 942.565 451.688 942.489 451.413 942.337C451.138 942.184 450.938 941.966 450.815 941.684C450.694 941.403 450.633 941.067 450.633 940.677V937.8H451.598V940.748C451.598 941.099 451.683 941.356 451.852 941.518C452.021 941.679 452.241 941.759 452.511 941.759C452.691 941.759 452.851 941.724 452.989 941.655C453.128 941.583 453.236 941.474 453.314 941.327C453.394 941.177 453.434 940.984 453.434 940.748V937.8H454.393V940.709ZM457.101 942.565C456.869 942.565 456.642 942.536 456.419 942.477C456.196 942.419 455.992 942.331 455.808 942.214C455.624 942.097 455.471 941.951 455.35 941.775C455.23 941.6 455.159 941.394 455.135 941.158H456.107C456.139 941.301 456.201 941.421 456.292 941.518C456.383 941.616 456.498 941.691 456.637 941.743C456.775 941.795 456.929 941.821 457.098 941.821C457.271 941.821 457.43 941.799 457.573 941.756C457.716 941.712 457.83 941.647 457.917 941.561C458.004 941.472 458.047 941.361 458.047 941.229C458.047 941.11 458.011 941.013 457.94 940.937C457.87 940.861 457.776 940.799 457.657 940.751C457.538 940.704 457.402 940.665 457.251 940.634L456.438 940.469C456.083 940.402 455.801 940.261 455.593 940.046C455.385 939.83 455.278 939.541 455.272 939.182C455.269 938.887 455.347 938.632 455.506 938.418C455.666 938.201 455.883 938.034 456.156 937.917C456.431 937.8 456.738 937.742 457.079 937.742C457.484 937.742 457.824 937.806 458.099 937.934C458.376 938.059 458.587 938.231 458.73 938.447C458.875 938.662 458.949 938.901 458.954 939.165H458.002C457.984 939.001 457.934 938.87 457.852 938.772C457.77 938.675 457.664 938.604 457.534 938.561C457.406 938.518 457.259 938.496 457.095 938.496C456.969 938.496 456.854 938.51 456.75 938.538C456.648 938.566 456.562 938.606 456.49 938.658C456.419 938.708 456.364 938.768 456.325 938.837C456.286 938.907 456.266 938.985 456.266 939.071C456.266 939.208 456.312 939.318 456.403 939.403C456.494 939.487 456.664 939.557 456.913 939.611L457.719 939.776C458.007 939.833 458.236 939.916 458.405 940.027C458.576 940.137 458.704 940.262 458.788 940.4C458.875 940.539 458.931 940.681 458.957 940.826C458.985 940.969 458.999 941.101 458.999 941.223C458.999 941.476 458.919 941.705 458.759 941.908C458.601 942.11 458.38 942.27 458.096 942.389C457.812 942.507 457.48 942.565 457.101 942.565ZM462.992 942.565C462.429 942.565 461.972 942.452 461.621 942.227C461.27 941.999 461.068 941.65 461.016 941.177L462.004 941.158C462.056 941.372 462.168 941.536 462.339 941.648C462.512 941.759 462.729 941.814 462.989 941.814C463.145 941.814 463.282 941.789 463.402 941.739C463.523 941.687 463.618 941.618 463.688 941.531C463.757 941.443 463.792 941.342 463.792 941.229C463.792 941.056 463.736 940.927 463.626 940.842C463.515 940.756 463.345 940.686 463.116 940.634L462.345 940.469C461.988 940.397 461.701 940.255 461.484 940.043C461.27 939.828 461.16 939.541 461.156 939.182C461.154 938.887 461.233 938.632 461.393 938.418C461.556 938.201 461.776 938.034 462.053 937.917C462.332 937.8 462.645 937.742 462.992 937.742C463.347 937.742 463.654 937.806 463.912 937.934C464.172 938.059 464.371 938.229 464.51 938.444C464.651 938.656 464.719 938.891 464.715 939.149L463.756 939.165C463.726 938.957 463.656 938.794 463.548 938.675C463.44 938.556 463.26 938.496 463.008 938.496C462.878 938.496 462.762 938.51 462.661 938.538C462.559 938.566 462.471 938.606 462.397 938.658C462.324 938.708 462.267 938.768 462.228 938.837C462.192 938.907 462.173 938.985 462.173 939.071C462.173 939.208 462.219 939.316 462.31 939.396C462.403 939.474 462.577 939.547 462.833 939.614L463.59 939.799C464.017 939.901 464.325 940.075 464.513 940.322C464.704 940.569 464.799 940.87 464.799 941.223C464.799 941.494 464.724 941.73 464.575 941.931C464.428 942.133 464.218 942.289 463.948 942.399C463.677 942.51 463.358 942.565 462.992 942.565ZM462.586 937.128H463.408V937.973H462.586V937.128ZM462.57 942.276H463.389V943.121H462.57V942.276ZM466.237 942.5V938.98H465.398V938.444C465.667 938.444 465.883 938.419 466.048 938.369C466.215 938.317 466.34 938.244 466.422 938.148C466.504 938.051 466.553 937.935 466.568 937.8H467.199V942.5H466.237ZM469.998 937.735C470.557 937.735 470.998 937.945 471.321 938.363C471.644 938.779 471.805 939.378 471.805 940.16C471.805 940.938 471.646 941.535 471.328 941.951C471.009 942.365 470.566 942.572 469.998 942.572C469.429 942.572 468.983 942.365 468.663 941.951C468.344 941.537 468.185 940.941 468.185 940.163C468.185 939.643 468.259 939.202 468.406 938.84C468.553 938.479 468.762 938.205 469.033 938.018C469.304 937.83 469.626 937.735 469.998 937.735ZM469.998 941.795C470.278 941.795 470.483 941.67 470.613 941.421C470.743 941.17 470.808 940.75 470.808 940.163C470.808 939.563 470.742 939.133 470.609 938.873C470.477 938.613 470.273 938.483 469.995 938.483C469.718 938.483 469.511 938.614 469.374 938.876C469.24 939.138 469.173 939.567 469.173 940.163C469.173 940.748 469.24 941.166 469.374 941.418C469.509 941.669 469.717 941.795 469.998 941.795ZM474.484 937.8H475.417V940.664H476.142V941.46H475.417V942.5H474.504L474.507 941.46H472.342V940.68L474.484 937.8ZM473.22 940.664H474.507V938.941L473.22 940.664ZM476.65 942.5V941.466H477.69V942.5H476.65ZM480.092 942.572C479.8 942.572 479.527 942.515 479.273 942.402C479.02 942.29 478.813 942.132 478.653 941.928C478.492 941.722 478.402 941.482 478.383 941.206H479.286C479.325 941.388 479.412 941.537 479.546 941.652C479.681 941.764 479.85 941.821 480.053 941.821C480.279 941.821 480.476 941.768 480.645 941.661C480.816 941.555 480.944 941.386 481.028 941.154C481.115 940.923 481.145 940.619 481.119 940.244C481.059 940.359 480.974 940.46 480.866 940.547C480.76 940.631 480.635 940.697 480.492 940.745C480.349 940.79 480.19 940.813 480.014 940.813C479.696 940.813 479.413 940.754 479.166 940.634C478.921 940.513 478.728 940.342 478.588 940.121C478.449 939.898 478.38 939.633 478.38 939.328C478.38 939.02 478.453 938.746 478.601 938.506C478.748 938.265 478.954 938.077 479.218 937.94C479.482 937.804 479.792 937.735 480.148 937.735C480.546 937.735 480.89 937.831 481.178 938.021C481.468 938.21 481.69 938.479 481.844 938.828C482 939.174 482.078 939.583 482.078 940.053C482.078 940.614 481.998 941.082 481.838 941.457C481.679 941.829 481.452 942.109 481.155 942.295C480.858 942.479 480.504 942.572 480.092 942.572ZM480.177 940.059C480.309 940.059 480.437 940.03 480.56 939.971C480.686 939.911 480.789 939.835 480.869 939.744C480.949 939.653 480.989 939.559 480.989 939.461C480.991 939.251 480.958 939.071 480.889 938.922C480.821 938.77 480.726 938.654 480.603 938.574C480.481 938.494 480.339 938.454 480.177 938.454C480.027 938.454 479.894 938.488 479.777 938.558C479.66 938.627 479.568 938.725 479.501 938.85C479.434 938.976 479.4 939.121 479.4 939.286C479.4 939.531 479.472 939.721 479.615 939.858C479.758 939.992 479.945 940.059 480.177 940.059ZM484.446 937.735C485.005 937.735 485.446 937.945 485.768 938.363C486.091 938.779 486.253 939.378 486.253 940.16C486.253 940.938 486.093 941.535 485.775 941.951C485.456 942.365 485.013 942.572 484.446 942.572C483.876 942.572 483.431 942.365 483.11 941.951C482.791 941.537 482.632 940.941 482.632 940.163C482.632 939.643 482.706 939.202 482.853 938.84C483.001 938.479 483.21 938.205 483.48 938.018C483.751 937.83 484.073 937.735 484.446 937.735ZM484.446 941.795C484.725 941.795 484.93 941.67 485.06 941.421C485.19 941.17 485.255 940.75 485.255 940.163C485.255 939.563 485.189 939.133 485.057 938.873C484.925 938.613 484.72 938.483 484.442 938.483C484.165 938.483 483.958 938.614 483.822 938.876C483.687 939.138 483.62 939.567 483.62 940.163C483.62 940.748 483.687 941.166 483.822 941.418C483.956 941.669 484.164 941.795 484.446 941.795ZM486.893 942.5V941.733H487.608V942.5H486.893Z" fill="#36536B"/>
</g>
<defs>
<filter id="filter0_d_2910_2" x="342.552" y="744.342" width="315.765" height="459.317" filterUnits="userSpaceOnUse" color-interpolation-filters="sRGB">
<feFlood flood-opacity="0" result="BackgroundImageFix"/>
<feColorMatrix in="SourceAlpha" type="matrix" values="0 0 0 0 0 0 0 0 0 0 0 0 0 0 0 0 0 0 127 0" result="hardAlpha"/>
<feOffset dx="25" dy="25"/>
<feGaussianBlur stdDeviation="40"/>
<feColorMatrix type="matrix" values="0 0 0 0 0.212302 0 0 0 0 0.32521 0 0 0 0 0.419299 0 0 0 0.300727 0"/>
<feBlend mode="normal" in2="BackgroundImageFix" result="effect1_dropShadow_2910_2"/>
<feBlend mode="normal" in="SourceGraphic" in2="effect1_dropShadow_2910_2" result="shape"/>
</filter>
<filter id="filter1_d_2910_2" x="403.805" y="894" width="161.255" height="83.1914" filterUnits="userSpaceOnUse" color-interpolation-filters="sRGB">
<feFlood flood-opacity="0" result="BackgroundImageFix"/>
<feColorMatrix in="SourceAlpha" type="matrix" values="0 0 0 0 0 0 0 0 0 0 0 0 0 0 0 0 0 0 127 0" result="hardAlpha"/>
<feMorphology radius="10" operator="erode" in="SourceAlpha" result="effect1_dropShadow_2910_2"/>
<feOffset dx="10" dy="10"/>
<feGaussianBlur stdDeviation="12.5"/>
<feColorMatrix type="matrix" values="0 0 0 0 0.212302 0 0 0 0 0.32521 0 0 0 0 0.419299 0 0 0 0.25 0"/>
<feBlend mode="normal" in2="BackgroundImageFix" result="effect1_dropShadow_2910_2"/>
<feBlend mode="normal" in="SourceGraphic" in2="effect1_dropShadow_2910_2" result="shape"/>
</filter>
<linearGradient id="paint0_linear_2910_2" x1="402.055" y1="799" x2="402.055" y2="806.394" gradientUnits="userSpaceOnUse">
<stop stop-color="#454545"/>
<stop offset="0.226279" stop-color="#999999"/>
<stop offset="1" stop-color="white"/>
</linearGradient>
<linearGradient id="paint1_linear_2910_2" x1="553.249" y1="850.448" x2="547.529" y2="850.448" gradientUnits="userSpaceOnUse">
<stop stop-color="white" stop-opacity="0.01"/>
<stop offset="0.222178" stop-color="#BABABA"/>
<stop offset="0.54678" stop-color="white" stop-opacity="0.01"/>
<stop offset="1" stop-color="white" stop-opacity="0.01"/>
</linearGradient>
<linearGradient id="paint2_linear_2910_2" x1="397.552" y1="850.292" x2="403.281" y2="850.292" gradientUnits="userSpaceOnUse">
<stop stop-color="white" stop-opacity="0.01"/>
<stop offset="0.222178" stop-color="#BABABA"/>
<stop offset="0.54678" stop-color="white" stop-opacity="0.01"/>
<stop offset="1" stop-color="white" stop-opacity="0.01"/>
</linearGradient>
<linearGradient id="paint3_linear_2910_2" x1="405.549" y1="806" x2="405.549" y2="1082.83" gradientUnits="userSpaceOnUse">
<stop stop-color="#9CB6CD"/>
<stop offset="0.420564" stop-color="#9AB3CA"/>
<stop offset="0.716592" stop-color="#557496"/>
<stop offset="1" stop-color="#475178"/>
</linearGradient>
<clipPath id="clip0_2910_2">
<rect width="132" height="54" fill="white" transform="translate(408.805 899)"/>
</clipPath>
</defs>
</svg>
